#N canvas 451 126 532 497 10;
#X obj 53 115 readsf~;
#X msg 154 87 1;
#X msg 186 86 0;
#X obj 60 436 outlet~;
#X msg 43 86 open jumping.wav;
#X obj 140 392 print;
#X obj 224 116 osc~ 3.1;
#X obj 317 126 osc~ 1.7;
#X obj 277 154 *~ 0.5;
#X obj 346 207 complex-mod~;
#X obj 59 255 lop~ 3;
#X obj 72 162 *~ 10;
#X obj 41 344 sigmund~ -hop 512 -npts 16384 -maxfreq 5 -npeak 3 peaks
;
#X text 190 48 freqs: 1.277 1.66 3.353;
#X obj 52 223 lop~ 5;
#X msg 34 50 open trommelen.wav;
#X connect 0 0 11 0;
#X connect 1 0 0 0;
#X connect 2 0 0 0;
#X connect 4 0 0 0;
#X connect 6 0 8 0;
#X connect 7 0 8 0;
#X connect 8 0 9 0;
#X connect 10 0 12 0;
#X connect 11 0 14 0;
#X connect 12 0 5 0;
#X connect 14 0 10 0;
#X connect 15 0 0 0;
