#N canvas 429 278 450 300 10;
#X obj 80 7 inlet~;
#X obj 121 298 *~, f 9;
#X obj 96 80 sig~ 1.277;
#X obj 80 105 vcf~ 1;
#X obj 191 241 clip~ 0 1;
#X obj 200 209 abs~;
#X obj 122 335 outlet~;
#X obj 124 13 loadbang;
#X obj 122 58 / 100;
#X obj 123 35 float \$1;
#X obj 168 115 loadbang;
#X obj 167 137 float \$1;
#X obj 77 195 *~ \$2;
#X obj 117 225 +~;
#X obj 109 253 osc~;
#X obj 208 59 loadbang;
#X obj 200 83 float \$3;
#X connect 0 0 3 0;
#X connect 1 0 6 0;
#X connect 2 0 3 1;
#X connect 3 0 5 0;
#X connect 3 0 12 0;
#X connect 4 0 1 1;
#X connect 5 0 4 0;
#X connect 7 0 9 0;
#X connect 8 0 2 0;
#X connect 9 0 8 0;
#X connect 10 0 11 0;
#X connect 11 0 13 1;
#X connect 11 0 14 1;
#X connect 12 0 13 0;
#X connect 13 0 14 0;
#X connect 14 0 1 0;
#X connect 15 0 16 0;
#X connect 16 0 3 2;
