#N canvas 339 205 228 300 10;
#X obj 44 38 oscparse;
#X obj 47 63 list trim;
#N canvas 244 284 450 307 calibrate 0;
#X obj 238 28 bng 15 250 50 0 empty empty empty 17 7 0 10 -262144 -1
-1;
#X text 258 24 calibrate;
#X obj 226 196 cyclone/mean;
#X obj 226 171 cyclone/zl group 50;
#X obj 224 143 spigot;
#X msg 238 95 1;
#X obj 234 236 t f b;
#X msg 357 197 0;
#X floatatom 434 44 5 0 0 0 - - -;
#X obj 235 8 inlet;
#X obj 251 279 outlet;
#X obj 432 5 cyclone/loadmess 50;
#X obj 118 102 inlet;
#X obj 146 116 unpack f f f;
#X connect 0 0 5 0;
#X connect 2 0 6 0;
#X connect 3 0 2 0;
#X connect 4 0 3 0;
#X connect 5 0 4 1;
#X connect 6 0 10 0;
#X connect 6 1 7 0;
#X connect 7 0 4 1;
#X connect 8 0 3 1;
#X connect 9 0 0 0;
#X connect 11 0 8 0;
#X connect 12 0 13 0;
#X connect 13 0 4 0;
#X restore 48 180 pd calibrate;
#X obj 105 148 bng 15 250 50 0 empty empty empty 17 7 0 10 -262144
-1 -1;
#X floatatom 51 210 5 0 0 0 - - -;
#X obj 28 247 -;
#X text 103 130 calibrate;
#X obj 116 49 loadbang;
#X obj 117 71 delay 2500;
#X obj 29 272 outlet;
#X obj 43 14 netreceive -u -b 9999;
#X obj 47 85 route accel;
#X obj 47 109 route Z;
#X connect 0 0 1 0;
#X connect 1 0 11 0;
#X connect 2 0 4 0;
#X connect 3 0 2 1;
#X connect 4 0 5 1;
#X connect 5 0 9 0;
#X connect 7 0 8 0;
#X connect 8 0 3 0;
#X connect 10 0 0 0;
#X connect 11 0 12 0;
#X connect 12 0 2 0;
#X connect 12 0 5 0;
