#N canvas 559 197 450 300 10;
#X obj 106 162 dac~;
#X obj 285 165 cyclone/line~;
#X msg 308 127 \$1 3000;
#X obj 103 124 *~ 1;
#X obj 96 85 osc~ 50;
#X msg 261 93 0 \, 50 30000;
#X connect 1 0 4 0;
#X connect 3 0 0 0;
#X connect 3 0 0 1;
#X connect 4 0 3 0;
#X connect 5 0 1 0;
