#N canvas 333 166 450 300 10;
#X obj 40 11 inputAccel;
#X obj 66 135 sig~;
#X obj 67 162 lop~ 100;
#X obj 118 249 snapshot~;
#X obj 163 136 tgl 15 0 empty empty empty 17 7 0 10 -262144 -1 -1 1
1;
#X obj 125 297 print;
#X obj 165 162 metro 10;
#N canvas 754 232 240 198 graph 1;
#N canvas 0 0 450 300 (subpatch) 0;
#X array filtered 200 float 0;
#X coords 0 1 199 -1 200 140 1 0 0;
#X restore 15 28 graph;
#N canvas 357 307 450 300 graph 0;
#X obj 94 44 inlet;
#X obj 142 44 inlet;
#X obj 143 76 t f f;
#X obj 62 139 tabwrite filtered;
#X connect 0 0 3 0;
#X connect 1 0 2 0;
#X connect 2 1 3 1;
#X restore 52 374 pd graph;
#N canvas 530 236 450 300 counter 0;
#X obj 131 68 int;
#X obj 206 64 + 1;
#X obj 234 65 % 200;
#X obj 124 40 inlet;
#X obj 127 118 outlet;
#X obj 159 68 t f f;
#X connect 0 0 5 0;
#X connect 1 0 2 0;
#X connect 2 0 0 1;
#X connect 3 0 0 0;
#X connect 5 0 4 0;
#X connect 5 1 1 0;
#X restore 118 350 pd counter;
#X obj 58 328 t f f b;
#X obj 57 297 inlet;
#X connect 2 0 1 1;
#X connect 3 1 1 0;
#X connect 3 2 2 0;
#X connect 4 0 3 0;
#X restore 27 317 pd graph;
#X obj 162 33 * 10;
#X obj 75 95 libs/kalman-pd/kalman;
#X obj 96 196 hip~ 30;
#X obj 261 234 *~;
#X obj 223 211 abs~;
#X obj 287 180 osc~ 150;
#X obj 266 276 dac~;
#X connect 0 0 8 0;
#X connect 1 0 2 0;
#X connect 2 0 10 0;
#X connect 3 0 5 0;
#X connect 3 0 7 0;
#X connect 4 0 6 0;
#X connect 6 0 3 0;
#X connect 8 0 9 0;
#X connect 9 0 1 0;
#X connect 10 0 3 0;
#X connect 10 0 12 0;
#X connect 11 0 14 0;
#X connect 11 0 14 1;
#X connect 12 0 11 0;
#X connect 13 0 11 1;
