#N canvas 104 121 808 547 10;
#X obj 44 38 oscparse;
#X obj 43 14 netreceive -u -b 5005;
#X obj 47 63 list trim;
#X obj 162 103 unpack f f f;
#X obj 49 86 route a;
#N canvas 244 284 450 307 calibrate 0;
#X obj 238 28 bng 15 250 50 0 empty empty empty 17 7 0 10 -262144 -1
-1;
#X text 258 24 calibrate;
#X obj 226 196 cyclone/mean;
#X obj 226 171 cyclone/zl group 50;
#X obj 224 143 spigot;
#X msg 238 95 1;
#X obj 234 236 t f b;
#X msg 357 197 0;
#X obj 413 218 cyclone/mean;
#X obj 413 193 cyclone/zl group 50;
#X obj 411 165 spigot;
#X msg 425 117 1;
#X obj 421 258 t f b;
#X msg 544 219 0;
#X obj 599 217 cyclone/mean;
#X obj 599 192 cyclone/zl group 50;
#X obj 597 164 spigot;
#X msg 611 116 1;
#X obj 607 257 t f b;
#X msg 730 218 0;
#X floatatom 434 44 5 0 0 0 - - -;
#X obj 235 8 inlet;
#X obj 251 279 outlet;
#X obj 426 283 outlet;
#X obj 612 287 outlet;
#X obj 432 5 cyclone/loadmess 50;
#X obj 118 102 inlet;
#X obj 146 116 unpack f f f;
#X connect 0 0 5 0;
#X connect 0 0 11 0;
#X connect 0 0 17 0;
#X connect 2 0 6 0;
#X connect 3 0 2 0;
#X connect 4 0 3 0;
#X connect 5 0 4 1;
#X connect 6 0 22 0;
#X connect 6 1 7 0;
#X connect 7 0 4 1;
#X connect 8 0 12 0;
#X connect 9 0 8 0;
#X connect 10 0 9 0;
#X connect 11 0 10 1;
#X connect 12 0 23 0;
#X connect 12 1 13 0;
#X connect 13 0 10 1;
#X connect 14 0 18 0;
#X connect 15 0 14 0;
#X connect 16 0 15 0;
#X connect 17 0 16 1;
#X connect 18 0 24 0;
#X connect 18 1 19 0;
#X connect 19 0 16 1;
#X connect 20 0 3 1;
#X connect 20 0 9 1;
#X connect 20 0 15 1;
#X connect 21 0 0 0;
#X connect 25 0 20 0;
#X connect 26 0 27 0;
#X connect 27 0 4 0;
#X connect 27 1 10 0;
#X connect 27 2 16 0;
#X restore 48 180 pd calibrate;
#X obj 71 147 bng 15 250 50 0 empty empty empty 17 7 0 10 -262144 -1
-1;
#X floatatom 51 210 5 0 0 0 - - -;
#X floatatom 90 208 5 0 0 0 - - -;
#X floatatom 132 205 5 0 0 0 - - -;
#X obj 173 244 -;
#X obj 202 246 -;
#X obj 241 247 -;
#X obj 163 448 sig~;
#X obj 138 474 lop~ 5;
#X floatatom 347 363 5 0 0 0 - - -;
#X text 388 361 filter freq;
#X text 69 129 calibrate;
#X obj 133 552 osc~ 200;
#X obj 346 342 cyclone/loadmess 5;
#X obj 212 647 dac~;
#X obj 116 49 loadbang;
#X obj 117 71 delay 2500;
#X obj 23 236 vradio 15 1 0 4 sdvs asfgasgf empty 0 -8 0 10 -228856
-1 -1 2;
#X text 41 236 none;
#X text 41 251 x;
#X text 41 266 y;
#X text 41 281 z;
#X obj 143 274 cyclone/switch 3;
#X floatatom 334 425 5 0 0 0 - - -;
#X obj 212 612 *~, f 9;
#X obj 148 369 libs/kalman-pd/kalman;
#X floatatom 300 125 5 0 0 0 - - -;
#X obj 341 464 sig~;
#X obj 340 533 abs~;
#X obj 341 582 clip~ 0 1;
#X text 375 426 pass this val to subtr;
#X obj 345 486 lop~ 5;
#X obj 74 308 tgl 15 0 empty empty empty 17 7 0 10 -262144 -1 -1 0
1;
#X msg 60 339 analyze \$1;
#N canvas 244 284 450 307 calibrate 0;
#X obj 238 28 bng 15 250 50 0 empty empty empty 17 7 0 10 -262144 -1
-1;
#X text 258 24 calibrate;
#X obj 226 196 cyclone/mean;
#X obj 226 171 cyclone/zl group 50;
#X obj 224 143 spigot;
#X msg 238 95 1;
#X obj 234 236 t f b;
#X msg 357 197 0;
#X obj 413 218 cyclone/mean;
#X obj 413 193 cyclone/zl group 50;
#X obj 411 165 spigot;
#X msg 425 117 1;
#X obj 421 258 t f b;
#X msg 544 219 0;
#X obj 599 217 cyclone/mean;
#X obj 599 192 cyclone/zl group 50;
#X obj 597 164 spigot;
#X msg 611 116 1;
#X obj 607 257 t f b;
#X msg 730 218 0;
#X floatatom 434 44 5 0 0 0 - - -;
#X obj 235 8 inlet;
#X obj 251 279 outlet;
#X obj 426 283 outlet;
#X obj 612 287 outlet;
#X obj 432 5 cyclone/loadmess 50;
#X obj 118 102 inlet;
#X obj 146 116 unpack f f f;
#X connect 0 0 5 0;
#X connect 0 0 11 0;
#X connect 0 0 17 0;
#X connect 2 0 6 0;
#X connect 3 0 2 0;
#X connect 4 0 3 0;
#X connect 5 0 4 1;
#X connect 6 0 22 0;
#X connect 6 1 7 0;
#X connect 7 0 4 1;
#X connect 8 0 12 0;
#X connect 9 0 8 0;
#X connect 10 0 9 0;
#X connect 11 0 10 1;
#X connect 12 0 23 0;
#X connect 12 1 13 0;
#X connect 13 0 10 1;
#X connect 14 0 18 0;
#X connect 15 0 14 0;
#X connect 16 0 15 0;
#X connect 17 0 16 1;
#X connect 18 0 24 0;
#X connect 18 1 19 0;
#X connect 19 0 16 1;
#X connect 20 0 3 1;
#X connect 20 0 9 1;
#X connect 20 0 15 1;
#X connect 21 0 0 0;
#X connect 25 0 20 0;
#X connect 26 0 27 0;
#X connect 27 0 4 0;
#X connect 27 1 10 0;
#X connect 27 2 16 0;
#X restore 534 440 pd calibrate;
#X obj 559 409 bng 15 250 50 0 empty empty empty 17 7 0 10 -262144
-1 -1;
#X text 555 389 calibrate;
#X floatatom 533 473 5 0 0 0 - - -;
#X obj 518 396 abs 0;
#X obj 133 506 cyclone/scale~ 0 1 0 200;
#X obj 339 554 -~ 0.05;
#X obj 636 240 t f f;
#X obj 643 274 -;
#X floatatom 659 302 5 0 0 0 - - -;
#X obj 656 341 abs 0;
#X obj 684 518 sel 1;
#X obj 683 544 bng 15 250 50 0 empty empty empty 17 7 0 10 -262144
-1 -1;
#X floatatom 733 470 5 0 0 0 - - -;
#X obj 663 389 libs/kalman-pd/kalman;
#X obj 654 414 t f f;
#X obj 659 442 -;
#X obj 675 490 < 0.001;
#X obj 662 464 abs;
#X obj 133 530 +~ 300;
#X connect 0 0 2 0;
#X connect 1 0 0 0;
#X connect 2 0 4 0;
#X connect 3 0 32 0;
#X connect 3 0 10 0;
#X connect 3 1 11 0;
#X connect 3 2 12 0;
#X connect 4 0 3 0;
#X connect 4 0 5 0;
#X connect 5 0 7 0;
#X connect 5 1 8 0;
#X connect 5 2 9 0;
#X connect 6 0 5 1;
#X connect 7 0 10 1;
#X connect 8 0 11 1;
#X connect 9 0 12 1;
#X connect 10 0 28 1;
#X connect 11 0 28 2;
#X connect 12 0 28 3;
#X connect 13 0 14 0;
#X connect 14 0 45 0;
#X connect 15 0 14 1;
#X connect 18 0 30 0;
#X connect 19 0 15 0;
#X connect 21 0 22 0;
#X connect 22 0 6 0;
#X connect 23 0 28 0;
#X connect 28 0 31 0;
#X connect 29 0 33 0;
#X connect 29 0 44 0;
#X connect 30 0 20 0;
#X connect 30 0 20 1;
#X connect 31 0 13 0;
#X connect 31 0 29 0;
#X connect 32 0 47 0;
#X connect 33 0 37 0;
#X connect 34 0 46 0;
#X connect 35 0 30 1;
#X connect 37 0 34 0;
#X connect 38 0 39 0;
#X connect 39 0 31 0;
#X connect 40 0 43 0;
#X connect 41 0 40 1;
#X connect 43 0 46 1;
#X connect 44 0 40 0;
#X connect 45 0 59 0;
#X connect 46 0 35 0;
#X connect 47 0 48 1;
#X connect 47 1 48 0;
#X connect 48 0 49 0;
#X connect 49 0 50 0;
#X connect 50 0 54 0;
#X connect 51 0 52 0;
#X connect 54 0 55 0;
#X connect 55 0 56 1;
#X connect 55 1 56 0;
#X connect 56 0 53 0;
#X connect 56 0 58 0;
#X connect 57 0 51 0;
#X connect 58 0 57 0;
#X connect 59 0 18 0;
