#N canvas 204 124 851 597 10;
#X obj 163 90 sig~;
#X obj 367 549 dac~;
#N canvas 2 410 240 198 graph 1;
#N canvas 0 0 450 300 (subpatch) 0;
#X array filtered 200 float 0;
#X coords 0 1 199 -1 200 140 1 0 0;
#X restore 15 28 graph;
#N canvas 357 307 450 300 graph 0;
#X obj 94 44 inlet;
#X obj 142 44 inlet;
#X obj 143 76 t f f;
#X obj 62 139 tabwrite filtered;
#X connect 0 0 3 0;
#X connect 1 0 2 0;
#X connect 2 1 3 1;
#X restore 52 374 pd graph;
#N canvas 530 236 450 300 counter 0;
#X obj 131 68 int;
#X obj 206 64 + 1;
#X obj 234 65 % 200;
#X obj 124 40 inlet;
#X obj 127 118 outlet;
#X obj 159 68 t f f;
#X connect 0 0 5 0;
#X connect 1 0 2 0;
#X connect 2 0 0 1;
#X connect 3 0 0 0;
#X connect 5 0 4 0;
#X connect 5 1 1 0;
#X restore 118 350 pd counter;
#X obj 58 328 t f f b;
#X obj 72 289 snapshot~;
#X obj 102 258 metro 5;
#X obj 106 206 loadbang;
#X msg 104 234 1;
#X obj 50 250 inlet~;
#X connect 2 0 1 1;
#X connect 3 1 1 0;
#X connect 3 2 2 0;
#X connect 4 0 3 0;
#X connect 5 0 4 0;
#X connect 6 0 7 0;
#X connect 7 0 5 0;
#X connect 8 0 4 0;
#X restore 59 388 pd graph;
#X obj 344 473 clip~ -1 1;
#X text 578 313 freqs: 1.277 1.66 3.353;
#X obj 345 448 cyclone/tanh~;
#X obj 152 9 inputAccel;
#X text 7 6 ._.;
#X text 816 559 ._.;
#X obj 59 363 *~ 10;
#N canvas 2 570 240 198 graph 1;
#N canvas 0 0 450 300 (subpatch) 0;
#X array filtered2 200 float 0;
#X coords 0 1 199 -1 200 140 1 0 0;
#X restore 15 28 graph;
#N canvas 357 307 450 300 graph 0;
#X obj 94 44 inlet;
#X obj 142 44 inlet;
#X obj 143 76 t f f;
#X obj 62 137 tabwrite filtered2;
#X connect 0 0 3 0;
#X connect 1 0 2 0;
#X connect 2 1 3 1;
#X restore 52 374 pd graph;
#N canvas 530 236 450 300 counter 0;
#X obj 131 68 int;
#X obj 206 64 + 1;
#X obj 234 65 % 200;
#X obj 124 40 inlet;
#X obj 127 118 outlet;
#X obj 159 68 t f f;
#X connect 0 0 5 0;
#X connect 1 0 2 0;
#X connect 2 0 0 1;
#X connect 3 0 0 0;
#X connect 5 0 4 0;
#X connect 5 1 1 0;
#X restore 118 350 pd counter;
#X obj 58 328 t f f b;
#X obj 72 289 snapshot~;
#X obj 102 258 metro 5;
#X obj 106 206 loadbang;
#X msg 104 234 1;
#X obj 50 250 inlet~;
#X connect 2 0 1 1;
#X connect 3 1 1 0;
#X connect 3 2 2 0;
#X connect 4 0 3 0;
#X connect 5 0 4 0;
#X connect 6 0 7 0;
#X connect 7 0 5 0;
#X connect 8 0 4 0;
#X restore 120 388 pd graph;
#X obj 119 364 *~ 10;
#X obj 345 401 *~ 1, f 9;
#N canvas 2 570 240 198 graph 1;
#N canvas 0 0 450 300 (subpatch) 0;
#X array filtered3 200 float 0;
#X coords 0 1 199 -1 200 140 1 0 0;
#X restore 15 28 graph;
#N canvas 357 307 450 300 graph 0;
#X obj 94 44 inlet;
#X obj 142 44 inlet;
#X obj 143 76 t f f;
#X obj 62 137 tabwrite filtered3;
#X connect 0 0 3 0;
#X connect 1 0 2 0;
#X connect 2 1 3 1;
#X restore 52 374 pd graph;
#N canvas 530 236 450 300 counter 0;
#X obj 131 68 int;
#X obj 206 64 + 1;
#X obj 234 65 % 200;
#X obj 124 40 inlet;
#X obj 127 118 outlet;
#X obj 159 68 t f f;
#X connect 0 0 5 0;
#X connect 1 0 2 0;
#X connect 2 0 0 1;
#X connect 3 0 0 0;
#X connect 5 0 4 0;
#X connect 5 1 1 0;
#X restore 118 350 pd counter;
#X obj 58 328 t f f b;
#X obj 72 289 snapshot~;
#X obj 102 258 metro 5;
#X obj 106 206 loadbang;
#X msg 104 234 1;
#X obj 50 250 inlet~;
#X connect 2 0 1 1;
#X connect 3 1 1 0;
#X connect 3 2 2 0;
#X connect 4 0 3 0;
#X connect 5 0 4 0;
#X connect 6 0 7 0;
#X connect 7 0 5 0;
#X connect 8 0 4 0;
#X restore 181 405 pd graph;
#X obj 181 383 *~ 10;
#N canvas 15 248 240 198 graph 1;
#N canvas 0 0 450 300 (subpatch) 0;
#X array unfiltered 200 float 0;
#X coords 0 1 199 -1 200 140 1 0 0;
#X restore 15 28 graph;
#N canvas 357 307 450 300 graph 0;
#X obj 94 44 inlet;
#X obj 142 44 inlet;
#X obj 143 76 t f f;
#X obj 62 139 tabwrite unfiltered;
#X connect 0 0 3 0;
#X connect 1 0 2 0;
#X connect 2 1 3 1;
#X restore 52 374 pd graph;
#N canvas 530 236 450 300 counter 0;
#X obj 131 68 int;
#X obj 206 64 + 1;
#X obj 234 65 % 200;
#X obj 124 40 inlet;
#X obj 127 118 outlet;
#X obj 159 68 t f f;
#X connect 0 0 5 0;
#X connect 1 0 2 0;
#X connect 2 0 0 1;
#X connect 3 0 0 0;
#X connect 5 0 4 0;
#X connect 5 1 1 0;
#X restore 118 350 pd counter;
#X obj 58 328 t f f b;
#X obj 72 289 snapshot~;
#X obj 102 258 metro 5;
#X obj 106 206 loadbang;
#X msg 104 234 1;
#X obj 50 250 inlet~;
#X connect 2 0 1 1;
#X connect 3 1 1 0;
#X connect 3 2 2 0;
#X connect 4 0 3 0;
#X connect 5 0 4 0;
#X connect 6 0 7 0;
#X connect 7 0 5 0;
#X connect 8 0 4 0;
#X restore 96 58 pd graph;
#X obj 385 198 s calibrateNow;
#X obj 385 175 bng 15 250 50 0 empty empty empty 17 7 0 10 -262144
-1 -1;
#N canvas 507 379 450 300 recalibrate 0;
#X obj 140 37 t f f;
#X obj 147 71 -;
#X floatatom 156 99 5 0 0 0 - - -;
#X obj 163 182 tgl 15 0 empty empty empty 17 7 0 10 -262144 -1 -1 0
1;
#X obj 160 207 change;
#X obj 155 269 outlet;
#X obj 161 154 < 0.01;
#X obj 158 233 sel 1;
#X obj 159 126 abs;
#X obj 81 -47 inlet;
#X obj 78 -17 * 1000, f 9;
#X connect 0 0 1 1;
#X connect 0 1 1 0;
#X connect 1 0 2 0;
#X connect 2 0 8 0;
#X connect 3 0 4 0;
#X connect 4 0 7 0;
#X connect 6 0 3 0;
#X connect 7 0 5 0;
#X connect 8 0 6 0;
#X connect 9 0 10 0;
#X connect 10 0 0 0;
#X restore 383 153 pd recalibrate;
#X obj 367 14 abs;
#X floatatom 372 60 5 0 0 0 - - -;
#X obj 370 34 cyclone/peak 0;
#X obj 287 29 spigot;
#X obj 319 7 tgl 15 0 empty empty empty 17 7 0 10 -262144 -1 -1 0 1
;
#X msg 482 22 0;
#X obj 157 37 abs;
#X obj 160 64 expr if($f1 > $f2 \, $f3 \, 0);
#X obj 96 34 *~ 100;
#X obj 643 17 loadbang;
#X msg 642 86 \; pd dsp 1;
#X obj 668 52 delay 4000;
#X obj 383 128 spigot;
#X obj 414 101 tgl 15 0 empty empty empty 17 7 0 10 -262144 -1 -1 0
1;
#X text 434 97 automatic recalibration on/off;
#N canvas 506 128 450 300 old-filtering 0;
#X obj -10 92 libs/kalman-pd/kalman;
#X obj 7 42 tgl 15 0 empty empty empty 17 7 0 10 -262144 -1 -1 0 1
;
#X msg -7 73 analyze \$1;
#X obj 1 139 else/median;
#X obj -2 117 cyclone/zl group 3;
#X connect 1 0 2 0;
#X connect 2 0 0 0;
#X connect 4 0 3 0;
#X restore 770 104 pd old-filtering;
#X text 411 291 parameters: freq freq_mod bp_Q;
#X floatatom 237 164 5 0 0 0 - - -;
#X obj 433 57 cyclone/loadmess 0.009;
#X obj 426 359 *~ 0.5;
#X obj 206 228 lop~ 2;
#X obj 206 205 lop~ 2;
#X obj 206 252 lop~ 2;
#N canvas 604 148 450 300 recorder 1;
#X obj 84 131 writesf~;
#X obj 23 26 inlet~;
#X msg 151 98 start;
#X msg 205 98 stop;
#X msg 78 64 open running2.wav;
#X obj 89 213 readsf~;
#X msg 190 186 1;
#X msg 222 185 0;
#X obj 91 247 outlet~;
#X msg 79 185 open jumping.wav;
#X connect 1 0 0 0;
#X connect 2 0 0 0;
#X connect 3 0 0 0;
#X connect 4 0 0 0;
#X connect 5 0 8 0;
#X connect 6 0 5 0;
#X connect 7 0 5 0;
#X connect 9 0 5 0;
#X restore 188 128 pd recorder;
#X obj 345 422 *~ 20;
#X obj 369 500 hip~ 100;
#X obj 368 521 hip~ 100;
#X obj 35 39 noise~;
#X obj 34 65 lop~ 5;
#X obj 34 90 *~ 0.5;
#X obj 18 144 vradio 15 1 0 3 empty empty set_input 0 -8 0 10 -262144
-1 -1 0;
#X text 36 145 input;
#X text 36 157 recorder;
#X text 36 173 test noise;
#X obj 21 235 gate~;
#X obj 66 232 gate~;
#X obj 113 231 gate~;
#X obj 16 209 == 0;
#X obj 67 206 == 1;
#X obj 113 204 == 2;
#X obj 116 10 bng 15 250 50 0 empty empty empty 17 7 0 10 -262144 -1
-1;
#X text 66 7 incoming;
#X text 271 163 sensitivity (5);
#X obj 204 181 *~ 3;
#X text 576 349 gedempt: 1.314 2.185 0.995;
#X text 578 373 gemeten vr dmp: 1.208 1.565 3.204;
#X obj 46 312 filterResonanceCasc 120.8 100 1;
#X obj 230 285 filterResonanceCasc 156.5 100 1;
#X obj 359 321 filterResonanceCasc 320.4 100 1;
#X connect 0 0 42 0;
#X connect 0 0 53 1;
#X connect 3 0 44 0;
#X connect 5 0 3 0;
#X connect 6 0 22 0;
#X connect 6 0 25 0;
#X connect 6 0 26 2;
#X connect 6 0 59 0;
#X connect 9 0 2 0;
#X connect 11 0 10 0;
#X connect 12 0 43 0;
#X connect 14 0 13 0;
#X connect 17 0 16 0;
#X connect 18 0 17 0;
#X connect 19 0 21 0;
#X connect 20 0 26 1;
#X connect 21 0 20 0;
#X connect 22 0 19 0;
#X connect 23 0 22 1;
#X connect 24 0 21 1;
#X connect 25 0 26 0;
#X connect 26 0 0 0;
#X connect 26 0 27 0;
#X connect 26 0 31 0;
#X connect 27 0 15 0;
#X connect 28 0 30 0;
#X connect 30 0 29 0;
#X connect 31 0 18 0;
#X connect 32 0 31 1;
#X connect 36 0 62 1;
#X connect 37 0 20 0;
#X connect 38 0 12 0;
#X connect 39 0 41 0;
#X connect 40 0 39 0;
#X connect 41 0 65 0;
#X connect 41 0 66 0;
#X connect 41 0 67 0;
#X connect 42 0 54 1;
#X connect 43 0 5 0;
#X connect 44 0 45 0;
#X connect 45 0 1 0;
#X connect 45 0 1 1;
#X connect 46 0 47 0;
#X connect 47 0 48 0;
#X connect 48 0 55 1;
#X connect 49 0 56 0;
#X connect 49 0 57 0;
#X connect 49 0 58 0;
#X connect 53 0 62 0;
#X connect 54 0 62 0;
#X connect 55 0 62 0;
#X connect 56 0 53 0;
#X connect 57 0 54 0;
#X connect 58 0 55 0;
#X connect 62 0 40 0;
#X connect 65 0 12 0;
#X connect 65 0 9 0;
#X connect 66 0 12 0;
#X connect 66 0 11 0;
#X connect 67 0 14 0;
#X connect 67 0 38 0;
