#N canvas 60 98 884 756 10;
#X obj 152 217 sig~;
#X obj 219 660 dac~;
#X obj 221 497 *~, f 9;
#X obj 152 194 libs/kalman-pd/kalman;
#X obj 78 133 tgl 15 0 empty empty empty 17 7 0 10 -262144 -1 -1 0
1;
#X msg 64 164 analyze \$1;
#N canvas 494 446 240 198 graph 0;
#N canvas 0 0 450 300 (subpatch) 0;
#X array filtered 200 float 0;
#X coords 0 1 199 -1 200 140 1 0 0;
#X restore 15 28 graph;
#N canvas 357 307 450 300 graph 0;
#X obj 94 44 inlet;
#X obj 142 44 inlet;
#X obj 143 76 t f f;
#X obj 62 139 tabwrite filtered;
#X connect 0 0 3 0;
#X connect 1 0 2 0;
#X connect 2 1 3 1;
#X restore 52 374 pd graph;
#N canvas 530 236 450 300 counter 0;
#X obj 131 68 int;
#X obj 206 64 + 1;
#X obj 234 65 % 200;
#X obj 124 40 inlet;
#X obj 127 118 outlet;
#X obj 159 68 t f f;
#X connect 0 0 5 0;
#X connect 1 0 2 0;
#X connect 2 0 0 1;
#X connect 3 0 0 0;
#X connect 5 0 4 0;
#X connect 5 1 1 0;
#X restore 118 350 pd counter;
#X obj 58 328 t f f b;
#X obj 57 297 inlet;
#X connect 2 0 1 1;
#X connect 3 1 1 0;
#X connect 3 2 2 0;
#X connect 4 0 3 0;
#X restore 38 219 pd graph;
#X floatatom 176 123 5 0 0 0 - - -;
#X text 304 632 < with the test there was clip~ 0 1 here. wave folding
might be necessary.;
#X obj 224 632 clip~ -1 1;
#N canvas 387 363 240 198 freq1 0;
#N canvas 0 0 450 300 (subpatch) 0;
#X array freq1 200 float 0;
#X coords 0 1 199 -1 200 140 1 0 0;
#X restore 15 28 graph;
#N canvas 357 307 450 300 graph 0;
#X obj 94 44 inlet;
#X obj 142 44 inlet;
#X obj 143 76 t f f;
#X obj 62 139 tabwrite freq1;
#X connect 0 0 3 0;
#X connect 1 0 2 0;
#X connect 2 1 3 1;
#X restore 52 374 pd graph;
#N canvas 530 236 450 300 counter 0;
#X obj 131 68 int;
#X obj 206 64 + 1;
#X obj 234 65 % 200;
#X obj 124 40 inlet;
#X obj 127 118 outlet;
#X obj 159 68 t f f;
#X connect 0 0 5 0;
#X connect 1 0 2 0;
#X connect 2 0 0 1;
#X connect 3 0 0 0;
#X connect 5 0 4 0;
#X connect 5 1 1 0;
#X restore 118 350 pd counter;
#X obj 58 328 t f f b;
#X obj 57 297 inlet;
#X connect 2 0 1 1;
#X connect 3 1 1 0;
#X connect 3 2 2 0;
#X connect 4 0 3 0;
#X restore 804 396 pd freq1;
#X obj 840 321 cyclone/snapshot~ 10;
#X msg 791 323 10;
#X text 660 530 freqs: 1.277 1.66 3.353;
#X obj 790 301 loadbang;
#X obj 214 445 osc~ 127.7;
#X obj 217 424 +~ 127.7;
#X obj 358 494 *~, f 9;
#X obj 354 404 +~ 166;
#X obj 351 426 osc~ 166;
#X obj 521 490 *~, f 9;
#X obj 517 400 +~ 335.3;
#X obj 514 422 osc~ 335.3;
#X floatatom 611 222 5 0 0 0 - - -;
#X text 654 222 narrowing bp filters;
#X obj 833 345 * 1;
#X obj 636 379 hip~ 5;
#X obj 422 384 hip~ 5;
#X obj 255 392 hip~ 5;
#X obj 148 135 * 1;
#X obj 479 532 *~ 0.5;
#X obj 137 397 *~ 5;
#X obj 354 367 *~ 5;
#X obj 506 381 *~ 5;
#X floatatom 37 370 5 0 0 0 - - -;
#X text -87 317 how much do we modulate the frew?;
#X obj 341 602 cyclone/tanh~;
#X obj 371 578 *~ 1.5;
#X obj 12 337 cyclone/loadmess 10;
#N canvas 1080 523 450 300 ds 0;
#X obj 38 53 inlet~;
#X obj 44 126 outlet~;
#X obj 169 30 tgl 15 0 empty empty empty 17 7 0 10 -262144 -1 -1 1
1;
#X obj 169 55 switch~ 4096 1 1;
#X obj 97 17 cyclone/loadmess 1;
#X msg 229 20 set 4096 1 1;
#X connect 0 0 1 0;
#X connect 2 0 3 0;
#X connect 4 0 2 0;
#X connect 5 0 3 0;
#X restore 157 252 pd ds;
#X text 228 250 < play with downsampling to see if it makes a difference
;
#X obj 371 557 *~ 3, f 9;
#X obj 195 292 sig~ 1.277;
#X obj 184 317 vcf~ 1;
#X obj 359 311 vcf~ 1;
#X obj 370 286 sig~ 1.66;
#X obj 528 298 sig~ 3.353;
#X obj 605 169 cyclone/loadmess 0.4;
#X text 694 378 do something with envelope;
#X obj 186 347 vcf~ 1;
#X obj 291 440 clip~ 0 1;
#X obj 428 420 clip~ 0 1;
#X obj 616 434 clip~ 0 1;
#X text 690 438 < clip ipv abs?;
#X obj 517 323 vcf~ 1;
#X floatatom 444 589 5 0 0 0 - - -;
#X obj 148 63 inputAccel;
#X connect 0 0 39 0;
#X connect 2 0 41 0;
#X connect 3 0 0 0;
#X connect 3 0 6 0;
#X connect 4 0 5 0;
#X connect 5 0 3 0;
#X connect 7 0 29 1;
#X connect 9 0 1 0;
#X connect 9 0 1 1;
#X connect 11 0 25 0;
#X connect 12 0 11 1;
#X connect 14 0 12 0;
#X connect 15 0 2 0;
#X connect 16 0 15 0;
#X connect 17 0 41 0;
#X connect 18 0 19 0;
#X connect 19 0 17 0;
#X connect 20 0 30 0;
#X connect 21 0 22 0;
#X connect 22 0 20 0;
#X connect 23 0 44 2;
#X connect 23 0 43 2;
#X connect 23 0 54 2;
#X connect 25 0 10 0;
#X connect 26 0 52 0;
#X connect 27 0 51 0;
#X connect 28 0 50 0;
#X connect 29 0 3 0;
#X connect 30 0 41 0;
#X connect 31 0 16 0;
#X connect 32 0 18 0;
#X connect 33 0 21 0;
#X connect 34 0 31 1;
#X connect 34 0 33 1;
#X connect 34 0 32 1;
#X connect 36 0 9 0;
#X connect 37 0 36 0;
#X connect 38 0 34 0;
#X connect 39 0 43 0;
#X connect 39 0 44 0;
#X connect 39 0 54 0;
#X connect 41 0 37 0;
#X connect 42 0 43 1;
#X connect 42 0 49 1;
#X connect 43 0 49 0;
#X connect 44 0 32 0;
#X connect 44 0 27 0;
#X connect 45 0 44 1;
#X connect 46 0 54 1;
#X connect 47 0 23 0;
#X connect 49 0 28 0;
#X connect 49 0 31 0;
#X connect 50 0 2 1;
#X connect 51 0 17 1;
#X connect 52 0 20 1;
#X connect 54 0 33 0;
#X connect 54 0 26 0;
#X connect 55 0 37 1;
#X connect 56 0 29 0;
