#N canvas 428 115 642 499 10;
#X obj 160 89 sig~;
#X obj 143 360 dac~;
#X obj 157 2 inputAccel;
#X text 600 465 ._.;
#X obj 479 331 s calibrateNow;
#X obj 362 227 bng 15 250 50 0 empty empty empty 17 7 0 10 -262144
-1 -1;
#X obj 157 37 abs;
#X obj 160 64 expr if($f1 > $f2 \, $f3 \, 0);
#X obj 106 62 *~ 100;
#X obj 483 193 loadbang;
#N canvas 412 190 450 300 recorder 0;
#X obj 84 131 writesf~;
#X obj 23 26 inlet~;
#X msg 151 98 start;
#X msg 205 98 stop;
#X msg 78 64 open running2.wav;
#X obj 89 213 readsf~;
#X msg 190 186 1;
#X msg 222 185 0;
#X obj 91 247 outlet~;
#X msg 79 185 open jumping.wav;
#X connect 1 0 0 0;
#X connect 2 0 0 0;
#X connect 3 0 0 0;
#X connect 4 0 0 0;
#X connect 5 0 8 0;
#X connect 6 0 5 0;
#X connect 7 0 5 0;
#X connect 9 0 5 0;
#X restore 176 116 pd recorder;
#X obj 19 267 vradio 15 1 0 3 empty empty set_input 0 -8 0 10 -262144
-1 -1 0;
#X text 37 268 input;
#X text 37 280 recorder;
#X text 37 296 test noise;
#X obj 358 161 bng 15 250 50 0 empty empty empty 17 7 0 10 -33289 -4034
-1;
#X text 303 159 incoming;
#N canvas 535 113 450 300 gates 0;
#X obj 12 10 inlet;
#X obj 12 58 == 0;
#X obj 63 55 == 1;
#X obj 109 53 == 2;
#X obj 11 105 cyclone/gate~;
#X obj 26 84 cyclone/gate~;
#X obj 96 100 cyclone/gate~;
#X obj 56 8 inlet~;
#X obj 112 12 inlet~;
#X obj 39 155 outlet~;
#X obj 256 32 noise~;
#X text 301 47 test noise;
#X obj 255 58 lop~ 3;
#X obj 257 83 *~ 0.5;
#X connect 0 0 1 0;
#X connect 0 0 2 0;
#X connect 0 0 3 0;
#X connect 1 0 4 0;
#X connect 2 0 5 0;
#X connect 3 0 6 0;
#X connect 4 0 9 0;
#X connect 5 0 9 0;
#X connect 6 0 9 0;
#X connect 7 0 4 1;
#X connect 8 0 5 1;
#X connect 10 0 12 0;
#X connect 12 0 13 0;
#X connect 13 0 6 1;
#X restore 129 147 pd gates;
#X obj 130 229 receive~ f0;
#X obj 138 249 receive~ f1;
#X obj 144 269 receive~ f2;
#N canvas 1081 360 450 300 OUTPUT 0;
#X obj 47 24 inlet~;
#X obj 71 195 outlet~;
#X obj 47 49 *~ 1, f 9;
#X obj 71 148 hip~ 100;
#X obj 70 169 hip~ 100;
#X text 144 178 cut out sub frequencies;
#X text 143 196 prevent feedback;
#X obj 116 32 r par_volume;
#X obj 264 22 inlet~;
#X obj 293 201 outlet~;
#X obj 269 55 *~ 1, f 9;
#X obj 293 154 hip~ 100;
#X obj 292 175 hip~ 100;
#X obj 338 38 r par_volume;
#X text 93 73 < if changed change both >;
#X obj 47 70 *~ 25;
#X obj 269 76 *~ 25;
#X text 98 95 or rather change on home screen;
#X connect 0 0 2 0;
#X connect 2 0 15 0;
#X connect 3 0 4 0;
#X connect 4 0 1 0;
#X connect 7 0 2 1;
#X connect 8 0 10 0;
#X connect 10 0 16 0;
#X connect 11 0 12 0;
#X connect 12 0 9 0;
#X connect 13 0 10 1;
#X connect 15 0 3 0;
#X connect 16 0 11 0;
#X restore 128 311 pd OUTPUT;
#N canvas 41 193 450 300 LOWPASS 0;
#X obj 17 17 inlet~;
#X floatatom 50 54 5 0 0 0 - - -;
#X obj 17 117 lop~ 2;
#X obj 17 94 lop~ 2;
#X obj 17 141 lop~ 2;
#X obj 20 175 outlet~;
#X text 90 119 cut out any frequencies above 2 hz for measuring;
#X obj 17 71 *~ 10;
#X text 84 52 sensitivity (5) \, (3);
#X connect 0 0 7 0;
#X connect 1 0 7 1;
#X connect 2 0 4 0;
#X connect 3 0 2 0;
#X connect 4 0 5 0;
#X connect 7 0 3 0;
#X restore 128 174 pd LOWPASS;
#N canvas 486 121 450 300 setMinimum 0;
#X obj 32 14 inlet;
#X obj 40 192 outlet;
#X obj 133 54 abs;
#X floatatom 138 100 5 0 0 0 - - -;
#X obj 136 74 cyclone/peak 0;
#X obj 53 69 spigot;
#X obj 85 47 tgl 15 0 empty empty empty 17 7 0 10 -262144 -1 -1 0 1
;
#X msg 217 51 0;
#X obj 248 100 r par_minimum;
#X connect 0 0 5 0;
#X connect 2 0 4 0;
#X connect 3 0 1 0;
#X connect 4 0 3 0;
#X connect 5 0 2 0;
#X connect 6 0 5 1;
#X connect 7 0 4 1;
#X connect 8 0 3 0;
#X restore 236 23 pd setMinimum;
#X text 292 226 calibrate.;
#X obj 16 232 cyclone/loadmess 0;
#X obj 385 19 cyclone/loadmess 1;
#X obj 387 45 metro 120000;
#X text 358 376 Zouthavenbrug;
#X text 359 386 Klank van Goud;
#X text 360 411 Mark IJzerman;
#N canvas -155 172 1013 300 filters 0;
#X text 635 77 freqs: 1.277 1.66 3.353;
#X text 633 56 parameters: freq freq_mod bp_Q;
#X text 633 91 gedempt: 1.314 2.185 0.995;
#X text 633 104 gemeten vr dmp: 1.208 1.565 3.204;
#X obj 13 127 send~ f0;
#X obj 206 146 send~ f1;
#X obj 77 86 *~ 30;
#X obj 18 22 inlet~;
#N canvas 3 509 240 198 graph1 1;
#N canvas 0 0 450 300 (subpatch) 0;
#X array filtered 200 float 0;
#X coords 0 1 199 -1 200 140 1 0 0;
#X restore 15 28 graph;
#N canvas 357 307 450 300 graph 0;
#X obj 94 44 inlet;
#X obj 142 44 inlet;
#X obj 143 76 t f f;
#X obj 62 139 tabwrite filtered;
#X connect 0 0 3 0;
#X connect 1 0 2 0;
#X connect 2 1 3 1;
#X restore 52 374 pd graph;
#N canvas 530 236 450 300 counter 0;
#X obj 131 68 int;
#X obj 206 64 + 1;
#X obj 234 65 % 200;
#X obj 124 40 inlet;
#X obj 127 118 outlet;
#X obj 159 68 t f f;
#X connect 0 0 5 0;
#X connect 1 0 2 0;
#X connect 2 0 0 1;
#X connect 3 0 0 0;
#X connect 5 0 4 0;
#X connect 5 1 1 0;
#X restore 118 350 pd counter;
#X obj 58 328 t f f b;
#X obj 72 289 snapshot~;
#X obj 102 258 metro 5;
#X obj 106 206 loadbang;
#X msg 104 234 1;
#X obj 50 250 inlet~;
#X connect 2 0 1 1;
#X connect 3 1 1 0;
#X connect 3 2 2 0;
#X connect 4 0 3 0;
#X connect 5 0 4 0;
#X connect 6 0 7 0;
#X connect 7 0 5 0;
#X connect 8 0 4 0;
#X restore 76 111 pd graph1;
#X obj 430 114 send~ f2;
#X obj 11 62 filterResonanceCasc 120.8 100 1.2;
#X obj 229 58 filterResonanceCasc 156.5 100 1.2;
#X obj 431 58 filterResonanceCasc 320.4 100 1.2;
#X obj 432 86 *~ 2.5;
#X connect 6 0 8 0;
#X connect 7 0 12 0;
#X connect 7 0 11 0;
#X connect 7 0 10 0;
#X connect 10 0 6 0;
#X connect 10 0 4 0;
#X connect 11 0 5 0;
#X connect 12 0 13 0;
#X connect 13 0 9 0;
#X restore 127 198 pd filters;
#X floatatom 360 204 5 0 2 0 - - -;
#X text 395 205 volume;
#X text 258 250 calibrate every;
#X text 394 250 seconds;
#X floatatom 359 250 5 0 0 0 - - -;
#X obj 359 184 tgl 15 0 empty empty empty 17 7 0 10 -262144 -1 -1 1
1;
#X msg 483 275 \; pd dsp \$1;
#X floatatom 358 275 5 0 0 0 - - -;
#X text 393 275 minimum;
#X text 280 184 audio on/off;
#X obj 472 375 s par_minimum;
#X obj 474 355 s par_volume;
#X obj 491 55 * 1000;
#X obj 468 130 unpack f f f;
#N canvas 2 541 240 198 graph-unf 0;
#N canvas 0 0 450 300 (subpatch) 0;
#X array unfiltered 200 float 0;
#X coords 0 1 199 -1 200 140 1 0 0;
#X restore 15 28 graph;
#N canvas 357 307 450 300 graph 0;
#X obj 94 44 inlet;
#X obj 142 44 inlet;
#X obj 143 76 t f f;
#X obj 62 139 tabwrite unfiltered;
#X connect 0 0 3 0;
#X connect 1 0 2 0;
#X connect 2 1 3 1;
#X restore 52 374 pd graph;
#N canvas 530 236 450 300 counter 0;
#X obj 131 68 int;
#X obj 206 64 + 1;
#X obj 234 65 % 200;
#X obj 124 40 inlet;
#X obj 127 118 outlet;
#X obj 159 68 t f f;
#X connect 0 0 5 0;
#X connect 1 0 2 0;
#X connect 2 0 0 1;
#X connect 3 0 0 0;
#X connect 5 0 4 0;
#X connect 5 1 1 0;
#X restore 118 350 pd counter;
#X obj 58 328 t f f b;
#X obj 72 289 snapshot~;
#X obj 102 258 metro 5;
#X obj 106 206 loadbang;
#X msg 104 234 1;
#X obj 50 250 inlet~;
#X connect 2 0 1 1;
#X connect 3 1 1 0;
#X connect 3 2 2 0;
#X connect 4 0 3 0;
#X connect 5 0 4 0;
#X connect 6 0 7 0;
#X connect 7 0 5 0;
#X connect 8 0 4 0;
#X restore 62 86 pd graph-unf;
#X msg 217 442 \; pd-graph-unf vis 1;
#X msg 345 443 \; pd-graph1 vis 1;
#X obj 359 300 bng 15 250 50 0 empty empty empty 17 7 0 10 -262144
-1 -1;
#X obj 360 317 bng 15 250 50 0 empty empty empty 17 7 0 10 -262144
-1 -1;
#X text 259 301 unfiltered graph;
#X text 258 316 freq1 graph;
#X text 289 347 test sound;
#X obj 359 348 tgl 15 0 empty empty empty 17 7 0 10 -262144 -1 -1 0
1;
#X obj 192 310 receive~ test;
#X obj 133 458 send~ test;
#X obj 133 414 *~;
#X obj 157 392 osc~ 110;
#X obj 133 436 *~ 0.25;
#X obj 481 221 delay 10000;
#N canvas 231 313 450 300 spatialize 0;
#X obj 20 23 inlet~;
#X obj 92 21 inlet~;
#X obj 174 19 inlet~;
#X obj 32 206 outlet~;
#X obj 111 207 outlet~;
#X obj 232 17 cyclone/rand~ 0.04;
#X obj 18 117 *~;
#X obj 65 115 *~;
#X obj 104 116 *~;
#X obj 140 116 *~;
#X obj 188 116 *~;
#X obj 243 117 *~;
#X obj 299 89 cyclone/rand~ 0.08;
#X obj 298 169 cyclone/rand~ 0.06;
#X obj 220 38 cyclone/scale~ -1 1 0.4 1;
#X obj 227 62 cyclone/scale~ -1 1 1 0.4;
#X obj 287 110 cyclone/scale~ -1 1 0.4 1;
#X obj 294 134 cyclone/scale~ -1 1 1 0.4;
#X obj 286 190 cyclone/scale~ -1 1 0.4 1;
#X obj 293 214 cyclone/scale~ -1 1 1 0.4;
#X connect 0 0 6 0;
#X connect 0 0 7 0;
#X connect 1 0 8 0;
#X connect 1 0 9 0;
#X connect 2 0 10 0;
#X connect 2 0 11 0;
#X connect 5 0 14 0;
#X connect 5 0 15 0;
#X connect 6 0 3 0;
#X connect 7 0 4 0;
#X connect 8 0 3 0;
#X connect 9 0 4 0;
#X connect 10 0 3 0;
#X connect 11 0 4 0;
#X connect 12 0 16 0;
#X connect 12 0 17 0;
#X connect 13 0 18 0;
#X connect 13 0 19 0;
#X connect 14 0 6 1;
#X connect 15 0 7 1;
#X connect 16 0 8 1;
#X connect 17 0 9 1;
#X connect 18 0 10 1;
#X connect 19 0 11 1;
#X restore 128 292 pd spatialize;
#X text 358 398 v0.92;
#X msg 479 245 1;
#X obj 469 107 cyclone/loadmess 1.5 12 0.009;
#N canvas 53 185 450 300 dynamics 0;
#X obj 55 83 inlet~;
#X obj 266 33 inlet~;
#X obj 38 240 outlet~;
#X obj 270 237 outlet~;
#X obj 47 115 compressor~;
#X obj 93 143 cyclone/tanh~;
#X obj 183 144 cyclone/tanh~;
#X obj 275 132 compressor~;
#X obj 440 37 loadbang;
#X msg 300 90 threshold -12 \, ratio 40 \, response 40 \, gain 6 \,
rmspeak 0 \, lookahead 0;
#X connect 0 0 5 0;
#X connect 1 0 6 0;
#X connect 5 0 2 0;
#X connect 6 0 3 0;
#X connect 8 0 9 0;
#X connect 9 0 7 1;
#X connect 9 0 4 1;
#X restore 139 333 pd dynamics;
#X connect 0 0 10 0;
#X connect 0 0 17 1;
#X connect 2 0 6 0;
#X connect 2 0 7 2;
#X connect 2 0 15 0;
#X connect 2 0 23 0;
#X connect 5 0 4 0;
#X connect 6 0 7 0;
#X connect 7 0 0 0;
#X connect 7 0 8 0;
#X connect 8 0 46 0;
#X connect 9 0 60 0;
#X connect 10 0 17 2;
#X connect 11 0 17 0;
#X connect 17 0 22 0;
#X connect 18 0 61 0;
#X connect 19 0 61 1;
#X connect 20 0 61 2;
#X connect 21 0 65 0;
#X connect 21 1 65 1;
#X connect 22 0 31 0;
#X connect 23 0 7 1;
#X connect 25 0 11 0;
#X connect 26 0 27 0;
#X connect 27 0 5 0;
#X connect 32 0 43 0;
#X connect 36 0 44 0;
#X connect 37 0 38 0;
#X connect 39 0 42 0;
#X connect 44 0 27 1;
#X connect 45 0 32 0;
#X connect 45 1 36 0;
#X connect 45 2 39 0;
#X connect 49 0 47 0;
#X connect 50 0 48 0;
#X connect 54 0 57 0;
#X connect 55 0 21 0;
#X connect 55 0 21 1;
#X connect 57 0 59 0;
#X connect 58 0 57 1;
#X connect 59 0 56 0;
#X connect 60 0 63 0;
#X connect 61 0 21 0;
#X connect 61 1 21 1;
#X connect 63 0 37 0;
#X connect 64 0 45 0;
#X connect 65 0 1 0;
#X connect 65 1 1 1;
#X coords 0 -1 1 1 200 300 1 250 130;
