#N canvas 134 150 808 547 10;
#X obj 44 38 oscparse;
#X obj 43 14 netreceive -u -b 5005;
#X obj 47 63 list trim;
#X obj 162 103 unpack f f f;
#X obj 49 86 route a;
#N canvas 244 284 450 307 calibrate 0;
#X obj 238 28 bng 15 250 50 0 empty empty empty 17 7 0 10 -262144 -1
-1;
#X text 258 24 calibrate;
#X obj 226 196 cyclone/mean;
#X obj 226 171 cyclone/zl group 50;
#X obj 224 143 spigot;
#X msg 238 95 1;
#X obj 234 236 t f b;
#X msg 357 197 0;
#X obj 413 218 cyclone/mean;
#X obj 413 193 cyclone/zl group 50;
#X obj 411 165 spigot;
#X msg 425 117 1;
#X obj 421 258 t f b;
#X msg 544 219 0;
#X obj 599 217 cyclone/mean;
#X obj 599 192 cyclone/zl group 50;
#X obj 597 164 spigot;
#X msg 611 116 1;
#X obj 607 257 t f b;
#X msg 730 218 0;
#X floatatom 434 44 5 0 0 0 - - -;
#X obj 235 8 inlet;
#X obj 251 279 outlet;
#X obj 426 283 outlet;
#X obj 612 287 outlet;
#X obj 432 5 cyclone/loadmess 50;
#X obj 118 102 inlet;
#X obj 146 116 unpack f f f;
#X connect 0 0 5 0;
#X connect 0 0 11 0;
#X connect 0 0 17 0;
#X connect 2 0 6 0;
#X connect 3 0 2 0;
#X connect 4 0 3 0;
#X connect 5 0 4 1;
#X connect 6 0 22 0;
#X connect 6 1 7 0;
#X connect 7 0 4 1;
#X connect 8 0 12 0;
#X connect 9 0 8 0;
#X connect 10 0 9 0;
#X connect 11 0 10 1;
#X connect 12 0 23 0;
#X connect 12 1 13 0;
#X connect 13 0 10 1;
#X connect 14 0 18 0;
#X connect 15 0 14 0;
#X connect 16 0 15 0;
#X connect 17 0 16 1;
#X connect 18 0 24 0;
#X connect 18 1 19 0;
#X connect 19 0 16 1;
#X connect 20 0 3 1;
#X connect 20 0 9 1;
#X connect 20 0 15 1;
#X connect 21 0 0 0;
#X connect 25 0 20 0;
#X connect 26 0 27 0;
#X connect 27 0 4 0;
#X connect 27 1 10 0;
#X connect 27 2 16 0;
#X restore 48 180 pd calibrate;
#X obj 71 147 bng 15 250 50 0 empty empty empty 17 7 0 10 -262144 -1
-1;
#X floatatom 51 210 5 0 0 0 - - -;
#X floatatom 90 208 5 0 0 0 - - -;
#X floatatom 132 205 5 0 0 0 - - -;
#X obj 173 244 -;
#X obj 202 246 -;
#X obj 241 247 -;
#X obj 151 408 sig~;
#X obj 138 474 lop~ 5;
#X floatatom 347 363 5 0 0 0 - - -;
#X text 388 361 filter freq;
#X text 69 129 calibrate;
#X obj 133 552 osc~ 200;
#X obj 346 342 cyclone/loadmess 5;
#X obj 218 653 dac~;
#X obj 116 49 loadbang;
#X obj 117 71 delay 2500;
#X obj 23 236 vradio 15 1 0 4 sdvs asfgasgf empty 0 -8 0 10 -228856
-1 -1 3;
#X text 41 236 none;
#X text 41 251 x;
#X text 41 266 y;
#X text 41 281 z;
#X obj 143 274 cyclone/switch 3;
#X floatatom 334 425 5 0 0 0 - - -;
#X obj 219 578 *~, f 9;
#X obj 148 369 libs/kalman-pd/kalman;
#X obj 341 464 sig~;
#X obj 340 533 abs~;
#X obj 341 582 clip~ 0 1;
#X text 375 426 pass this val to subtr;
#X obj 345 486 lop~ 5;
#X obj 74 308 tgl 15 0 empty empty empty 17 7 0 10 -262144 -1 -1 0
1;
#X msg 60 339 analyze \$1;
#N canvas 244 284 450 307 calibrate 0;
#X obj 238 28 bng 15 250 50 0 empty empty empty 17 7 0 10 -262144 -1
-1;
#X text 258 24 calibrate;
#X obj 226 196 cyclone/mean;
#X obj 226 171 cyclone/zl group 50;
#X obj 224 143 spigot;
#X msg 238 95 1;
#X obj 234 236 t f b;
#X msg 357 197 0;
#X obj 413 218 cyclone/mean;
#X obj 413 193 cyclone/zl group 50;
#X obj 411 165 spigot;
#X msg 425 117 1;
#X obj 421 258 t f b;
#X msg 544 219 0;
#X obj 599 217 cyclone/mean;
#X obj 599 192 cyclone/zl group 50;
#X obj 597 164 spigot;
#X msg 611 116 1;
#X obj 607 257 t f b;
#X msg 730 218 0;
#X floatatom 434 44 5 0 0 0 - - -;
#X obj 235 8 inlet;
#X obj 251 279 outlet;
#X obj 426 283 outlet;
#X obj 612 287 outlet;
#X obj 432 5 cyclone/loadmess 50;
#X obj 118 102 inlet;
#X obj 146 116 unpack f f f;
#X connect 0 0 5 0;
#X connect 0 0 11 0;
#X connect 0 0 17 0;
#X connect 2 0 6 0;
#X connect 3 0 2 0;
#X connect 4 0 3 0;
#X connect 5 0 4 1;
#X connect 6 0 22 0;
#X connect 6 1 7 0;
#X connect 7 0 4 1;
#X connect 8 0 12 0;
#X connect 9 0 8 0;
#X connect 10 0 9 0;
#X connect 11 0 10 1;
#X connect 12 0 23 0;
#X connect 12 1 13 0;
#X connect 13 0 10 1;
#X connect 14 0 18 0;
#X connect 15 0 14 0;
#X connect 16 0 15 0;
#X connect 17 0 16 1;
#X connect 18 0 24 0;
#X connect 18 1 19 0;
#X connect 19 0 16 1;
#X connect 20 0 3 1;
#X connect 20 0 9 1;
#X connect 20 0 15 1;
#X connect 21 0 0 0;
#X connect 25 0 20 0;
#X connect 26 0 27 0;
#X connect 27 0 4 0;
#X connect 27 1 10 0;
#X connect 27 2 16 0;
#X restore 534 440 pd calibrate;
#X obj 602 419 bng 15 250 50 0 empty empty empty 17 7 0 10 -262144
-1 -1;
#X text 558 335 calibrate;
#X floatatom 533 473 5 0 0 0 - - -;
#X obj 518 396 abs 0;
#X obj 133 506 cyclone/scale~ 0 1 0 200;
#X obj 636 240 t f f;
#X obj 643 274 -;
#X obj 133 530 +~ 300;
#X obj 609 203 cyclone/snapshot~;
#X obj 369 196 t b;
#X obj 425 229 delay 500;
#X floatatom 653 308 5 0 0 0 - - -;
#X obj 533 137 cyclone/loadmess 1;
#X obj 668 139 loadbang;
#X msg 698 171 100;
#X obj 659 385 tgl 15 0 empty empty empty 17 7 0 10 -262144 -1 -1 0
1;
#X obj 514 175 *~ 1000, f 9;
#X obj 657 357 > 3;
#X obj 656 410 change;
#X obj 654 436 sel 0;
#X obj 608 178 lop~ 0.1;
#X obj 530 503 sig~;
#X obj 339 554 -~;
#X obj 223 625 clip~ 0 1;
#X floatatom 59 543 5 0 0 0 - - -;
#X obj 516 541 -~ 0.01;
#X obj 511 568 lop~ 2;
#X obj 221 601 *~ 3, f 9;
#X obj 144 310 * 1;
#N canvas 330 382 240 198 graph 0;
#N canvas 0 0 450 300 (subpatch) 0;
#X array filtered 200 float 0;
#X coords 0 1 199 -1 200 140 1 0 0;
#X restore 15 28 graph;
#N canvas 357 307 450 300 graph 0;
#X obj 94 44 inlet;
#X obj 142 44 inlet;
#X obj 143 76 t f f;
#X obj 62 139 tabwrite filtered;
#X connect 0 0 3 0;
#X connect 1 0 2 0;
#X connect 2 1 3 1;
#X restore 52 374 pd graph;
#N canvas 530 236 450 300 counter 0;
#X obj 131 68 int;
#X obj 206 64 + 1;
#X obj 234 65 % 200;
#X obj 124 40 inlet;
#X obj 127 118 outlet;
#X obj 159 68 t f f;
#X connect 0 0 5 0;
#X connect 1 0 2 0;
#X connect 2 0 0 1;
#X connect 3 0 0 0;
#X connect 5 0 4 0;
#X connect 5 1 1 0;
#X restore 118 350 pd counter;
#X obj 58 328 t f f b;
#X obj 57 297 inlet;
#X connect 2 0 1 1;
#X connect 3 1 1 0;
#X connect 3 2 2 0;
#X connect 4 0 3 0;
#X restore 43 388 pd graph;
#X connect 0 0 2 0;
#X connect 1 0 0 0;
#X connect 2 0 4 0;
#X connect 3 0 10 0;
#X connect 3 1 11 0;
#X connect 3 2 12 0;
#X connect 4 0 3 0;
#X connect 4 0 5 0;
#X connect 5 0 7 0;
#X connect 5 1 8 0;
#X connect 5 2 9 0;
#X connect 5 2 49 0;
#X connect 6 0 5 1;
#X connect 7 0 10 1;
#X connect 8 0 11 1;
#X connect 9 0 12 1;
#X connect 10 0 28 1;
#X connect 11 0 28 2;
#X connect 12 0 28 3;
#X connect 13 0 14 0;
#X connect 14 0 44 0;
#X connect 14 0 56 0;
#X connect 15 0 14 1;
#X connect 18 0 30 0;
#X connect 19 0 15 0;
#X connect 21 0 22 0;
#X connect 22 0 6 0;
#X connect 23 0 28 0;
#X connect 28 0 68 0;
#X connect 29 0 32 0;
#X connect 29 0 43 0;
#X connect 30 0 67 0;
#X connect 31 0 13 0;
#X connect 31 0 29 0;
#X connect 31 0 69 0;
#X connect 32 0 36 0;
#X connect 33 0 62 0;
#X connect 34 0 30 1;
#X connect 36 0 33 0;
#X connect 37 0 38 0;
#X connect 38 0 31 0;
#X connect 39 0 42 0;
#X connect 40 0 39 1;
#X connect 42 0 61 0;
#X connect 43 0 39 0;
#X connect 44 0 47 0;
#X connect 45 0 46 1;
#X connect 45 1 46 0;
#X connect 46 0 51 0;
#X connect 47 0 18 0;
#X connect 48 0 45 0;
#X connect 49 0 50 0;
#X connect 50 0 40 0;
#X connect 51 0 57 0;
#X connect 52 0 48 0;
#X connect 53 0 54 0;
#X connect 54 0 48 1;
#X connect 55 0 58 0;
#X connect 56 0 60 0;
#X connect 57 0 55 0;
#X connect 58 0 59 0;
#X connect 59 0 40 0;
#X connect 60 0 48 0;
#X connect 61 0 65 0;
#X connect 62 0 34 0;
#X connect 63 0 20 0;
#X connect 63 0 20 1;
#X connect 64 0 47 1;
#X connect 65 0 66 0;
#X connect 66 0 62 1;
#X connect 67 0 63 0;
#X connect 68 0 31 0;
