#N canvas 248 126 982 756 10;
#X obj 163 167 sig~;
#X obj 353 678 dac~;
#X obj 221 497 *~, f 9;
#X obj -10 92 libs/kalman-pd/kalman;
#X obj 7 42 tgl 15 0 empty empty empty 17 7 0 10 -262144 -1 -1 0 1
;
#X msg -7 73 analyze \$1;
#N canvas 2 140 240 198 graph 1;
#N canvas 0 0 450 300 (subpatch) 0;
#X array filtered 200 float 0;
#X coords 0 1 199 -1 200 140 1 0 0;
#X restore 15 28 graph;
#N canvas 357 307 450 300 graph 0;
#X obj 94 44 inlet;
#X obj 142 44 inlet;
#X obj 143 76 t f f;
#X obj 62 139 tabwrite filtered;
#X connect 0 0 3 0;
#X connect 1 0 2 0;
#X connect 2 1 3 1;
#X restore 52 374 pd graph;
#N canvas 530 236 450 300 counter 0;
#X obj 131 68 int;
#X obj 206 64 + 1;
#X obj 234 65 % 200;
#X obj 124 40 inlet;
#X obj 127 118 outlet;
#X obj 159 68 t f f;
#X connect 0 0 5 0;
#X connect 1 0 2 0;
#X connect 2 0 0 1;
#X connect 3 0 0 0;
#X connect 5 0 4 0;
#X connect 5 1 1 0;
#X restore 118 350 pd counter;
#X obj 58 328 t f f b;
#X obj 72 289 snapshot~;
#X obj 102 258 metro 5;
#X obj 106 206 loadbang;
#X msg 104 234 1;
#X obj 50 250 inlet~;
#X connect 2 0 1 1;
#X connect 3 1 1 0;
#X connect 3 2 2 0;
#X connect 4 0 3 0;
#X connect 5 0 4 0;
#X connect 6 0 7 0;
#X connect 7 0 5 0;
#X connect 8 0 4 0;
#X restore 155 562 pd graph;
#X text 438 650 < with the test there was clip~ 0 1 here. wave folding
might be necessary.;
#X obj 358 650 clip~ -1 1;
#X text 563 265 freqs: 1.277 1.66 3.353;
#X obj 214 445 osc~ 127.7;
#X obj 217 424 +~ 127.7;
#X obj 358 494 *~, f 9;
#X obj 354 404 +~ 166;
#X obj 351 426 osc~ 166;
#X obj 521 490 *~, f 9;
#X obj 517 400 +~ 335.3;
#X obj 514 422 osc~ 335.3;
#X floatatom 611 222 5 0 0 0 - - -;
#X text 654 222 narrowing bp filters;
#X floatatom 37 370 5 0 0 0 - - -;
#X obj 361 632 cyclone/tanh~;
#X obj 195 292 sig~ 1.277;
#X obj 184 317 vcf~ 1;
#X obj 359 311 vcf~ 1;
#X obj 370 286 sig~ 1.66;
#X obj 528 298 sig~ 3.353;
#X obj 291 440 clip~ 0 1;
#X obj 422 457 clip~ 0 1;
#X obj 604 464 clip~ 0 1;
#X obj 517 323 vcf~ 1;
#X floatatom 460 562 5 0 0 0 - - -;
#X obj 152 9 inputAccel;
#X obj 145 248 lop~ 5;
#X text 530 84 DO NOT FORGET TO TURN SOUND ON and CALIBRATE;
#X text 7 6 ._.;
#X text 866 651 ._.;
#X text -87 317 how much do we modulate the freq?;
#X obj 147 535 *~ 10;
#X obj 137 397 *~ 2;
#X obj 354 367 *~ 2;
#X obj 506 381 *~ 2;
#N canvas 2 351 240 198 graph 1;
#N canvas 0 0 450 300 (subpatch) 0;
#X array filtered2 200 float 0;
#X coords 0 1 199 -1 200 140 1 0 0;
#X restore 15 28 graph;
#N canvas 357 307 450 300 graph 0;
#X obj 94 44 inlet;
#X obj 142 44 inlet;
#X obj 143 76 t f f;
#X obj 62 137 tabwrite filtered2;
#X connect 0 0 3 0;
#X connect 1 0 2 0;
#X connect 2 1 3 1;
#X restore 52 374 pd graph;
#N canvas 530 236 450 300 counter 0;
#X obj 131 68 int;
#X obj 206 64 + 1;
#X obj 234 65 % 200;
#X obj 124 40 inlet;
#X obj 127 118 outlet;
#X obj 159 68 t f f;
#X connect 0 0 5 0;
#X connect 1 0 2 0;
#X connect 2 0 0 1;
#X connect 3 0 0 0;
#X connect 5 0 4 0;
#X connect 5 1 1 0;
#X restore 118 350 pd counter;
#X obj 58 328 t f f b;
#X obj 72 289 snapshot~;
#X obj 102 258 metro 5;
#X obj 106 206 loadbang;
#X msg 104 234 1;
#X obj 50 250 inlet~;
#X connect 2 0 1 1;
#X connect 3 1 1 0;
#X connect 3 2 2 0;
#X connect 4 0 3 0;
#X connect 5 0 4 0;
#X connect 6 0 7 0;
#X connect 7 0 5 0;
#X connect 8 0 4 0;
#X restore 238 571 pd graph;
#X obj 230 544 *~ 10;
#X obj 371 578 *~ 1;
#X obj 371 557 *~ 1, f 9;
#N canvas 2 570 240 198 graph 1;
#N canvas 0 0 450 300 (subpatch) 0;
#X array filtered3 200 float 0;
#X coords 0 1 199 -1 200 140 1 0 0;
#X restore 15 28 graph;
#N canvas 357 307 450 300 graph 0;
#X obj 94 44 inlet;
#X obj 142 44 inlet;
#X obj 143 76 t f f;
#X obj 62 137 tabwrite filtered3;
#X connect 0 0 3 0;
#X connect 1 0 2 0;
#X connect 2 1 3 1;
#X restore 52 374 pd graph;
#N canvas 530 236 450 300 counter 0;
#X obj 131 68 int;
#X obj 206 64 + 1;
#X obj 234 65 % 200;
#X obj 124 40 inlet;
#X obj 127 118 outlet;
#X obj 159 68 t f f;
#X connect 0 0 5 0;
#X connect 1 0 2 0;
#X connect 2 0 0 1;
#X connect 3 0 0 0;
#X connect 5 0 4 0;
#X connect 5 1 1 0;
#X restore 118 350 pd counter;
#X obj 58 328 t f f b;
#X obj 72 289 snapshot~;
#X obj 102 258 metro 5;
#X obj 106 206 loadbang;
#X msg 104 234 1;
#X obj 50 250 inlet~;
#X connect 2 0 1 1;
#X connect 3 1 1 0;
#X connect 3 2 2 0;
#X connect 4 0 3 0;
#X connect 5 0 4 0;
#X connect 6 0 7 0;
#X connect 7 0 5 0;
#X connect 8 0 4 0;
#X restore 307 578 pd graph;
#X obj 299 551 *~ 10;
#X obj 479 532 *~ 1;
#X obj 300 408 abs~;
#X obj 425 432 abs~;
#X obj 603 439 abs~;
#X obj 12 337 cyclone/loadmess 100;
#N canvas 15 218 240 198 graph 0;
#N canvas 0 0 450 300 (subpatch) 0;
#X array unfiltered 200 float 0;
#X coords 0 1 199 -1 200 140 1 0 0;
#X restore 15 28 graph;
#N canvas 357 307 450 300 graph 0;
#X obj 94 44 inlet;
#X obj 142 44 inlet;
#X obj 143 76 t f f;
#X obj 62 139 tabwrite unfiltered;
#X connect 0 0 3 0;
#X connect 1 0 2 0;
#X connect 2 1 3 1;
#X restore 52 374 pd graph;
#N canvas 530 236 450 300 counter 0;
#X obj 131 68 int;
#X obj 206 64 + 1;
#X obj 234 65 % 200;
#X obj 124 40 inlet;
#X obj 127 118 outlet;
#X obj 159 68 t f f;
#X connect 0 0 5 0;
#X connect 1 0 2 0;
#X connect 2 0 0 1;
#X connect 3 0 0 0;
#X connect 5 0 4 0;
#X connect 5 1 1 0;
#X restore 118 350 pd counter;
#X obj 58 328 t f f b;
#X obj 72 289 snapshot~;
#X obj 102 258 metro 5;
#X obj 106 206 loadbang;
#X msg 104 234 1;
#X obj 50 250 inlet~;
#X connect 2 0 1 1;
#X connect 3 1 1 0;
#X connect 3 2 2 0;
#X connect 4 0 3 0;
#X connect 5 0 4 0;
#X connect 6 0 7 0;
#X connect 7 0 5 0;
#X connect 8 0 4 0;
#X restore 27 207 pd graph;
#X obj 319 115 else/median;
#X obj 295 236 s calibrateNow;
#X obj 295 213 bng 15 250 50 0 empty empty empty 17 7 0 10 -262144
-1 -1;
#N canvas 507 379 450 300 recalibrate 0;
#X obj 140 37 t f f;
#X obj 147 71 -;
#X floatatom 156 99 5 0 0 0 - - -;
#X obj 163 182 tgl 15 0 empty empty empty 17 7 0 10 -262144 -1 -1 1
1;
#X obj 160 207 change;
#X obj 155 269 outlet;
#X obj 161 154 < 0.01;
#X obj 158 233 sel 1;
#X obj 159 126 abs;
#X obj 81 -47 inlet;
#X obj 78 -17 * 1000, f 9;
#X connect 0 0 1 1;
#X connect 0 1 1 0;
#X connect 1 0 2 0;
#X connect 2 0 8 0;
#X connect 3 0 4 0;
#X connect 4 0 7 0;
#X connect 6 0 3 0;
#X connect 7 0 5 0;
#X connect 8 0 6 0;
#X connect 9 0 10 0;
#X connect 10 0 0 0;
#X restore 299 188 pd recalibrate;
#X obj 316 93 cyclone/zl group 3;
#X obj 367 14 abs;
#X floatatom 372 60 5 0 0 0 - - -;
#X obj 370 34 cyclone/peak 0;
#X obj 287 29 spigot;
#X obj 319 7 tgl 15 0 empty empty empty 17 7 0 10 -262144 -1 -1 0 1
;
#X msg 482 22 0;
#X obj 157 37 abs;
#X obj 160 64 expr if($f1 > $f2 \, $f3 \, 0);
#X obj 27 183 *~ 100;
#X obj 433 57 cyclone/loadmess 0.01;
#X obj 166 195 *~ 5;
#X obj 605 169 cyclone/loadmess 1;
#X connect 0 0 69 0;
#X connect 2 0 38 0;
#X connect 2 0 45 0;
#X connect 4 0 5 0;
#X connect 5 0 3 0;
#X connect 8 0 1 0;
#X connect 8 0 1 1;
#X connect 10 0 2 0;
#X connect 11 0 10 0;
#X connect 12 0 43 0;
#X connect 12 0 45 0;
#X connect 13 0 14 0;
#X connect 14 0 12 0;
#X connect 15 0 47 0;
#X connect 15 0 48 0;
#X connect 16 0 17 0;
#X connect 17 0 15 0;
#X connect 18 0 24 2;
#X connect 18 0 23 2;
#X connect 18 0 30 2;
#X connect 20 0 39 1;
#X connect 20 0 40 1;
#X connect 20 0 41 1;
#X connect 21 0 8 0;
#X connect 22 0 23 1;
#X connect 23 0 39 0;
#X connect 23 0 49 0;
#X connect 24 0 40 0;
#X connect 24 0 50 0;
#X connect 25 0 24 1;
#X connect 26 0 30 1;
#X connect 27 0 2 1;
#X connect 28 0 12 1;
#X connect 29 0 15 1;
#X connect 30 0 41 0;
#X connect 30 0 51 0;
#X connect 31 0 44 1;
#X connect 32 0 62 0;
#X connect 32 0 65 0;
#X connect 32 0 66 2;
#X connect 33 0 23 0;
#X connect 33 0 24 0;
#X connect 33 0 30 0;
#X connect 38 0 6 0;
#X connect 39 0 11 0;
#X connect 40 0 13 0;
#X connect 41 0 16 0;
#X connect 43 0 42 0;
#X connect 44 0 21 0;
#X connect 45 0 44 0;
#X connect 47 0 46 0;
#X connect 48 0 45 0;
#X connect 49 0 27 0;
#X connect 50 0 28 0;
#X connect 51 0 29 0;
#X connect 52 0 20 0;
#X connect 56 0 55 0;
#X connect 57 0 56 0;
#X connect 58 0 54 0;
#X connect 59 0 61 0;
#X connect 60 0 66 1;
#X connect 61 0 60 0;
#X connect 62 0 59 0;
#X connect 63 0 62 1;
#X connect 64 0 61 1;
#X connect 65 0 66 0;
#X connect 66 0 0 0;
#X connect 66 0 67 0;
#X connect 66 0 57 0;
#X connect 67 0 53 0;
#X connect 68 0 60 0;
#X connect 69 0 33 0;
#X connect 70 0 18 0;
