#N canvas 150 103 884 756 10;
#X obj 44 38 oscparse;
#X obj 47 63 list trim;
#X obj 162 103 unpack f f f;
#X obj 49 86 route a;
#N canvas 244 284 450 307 calibrate 0;
#X obj 238 28 bng 15 250 50 0 empty empty empty 17 7 0 10 -262144 -1
-1;
#X text 258 24 calibrate;
#X obj 226 196 cyclone/mean;
#X obj 226 171 cyclone/zl group 50;
#X obj 224 143 spigot;
#X msg 238 95 1;
#X obj 234 236 t f b;
#X msg 357 197 0;
#X obj 413 218 cyclone/mean;
#X obj 413 193 cyclone/zl group 50;
#X obj 411 165 spigot;
#X msg 425 117 1;
#X obj 421 258 t f b;
#X msg 544 219 0;
#X obj 599 217 cyclone/mean;
#X obj 599 192 cyclone/zl group 50;
#X obj 597 164 spigot;
#X msg 611 116 1;
#X obj 607 257 t f b;
#X msg 730 218 0;
#X floatatom 434 44 5 0 0 0 - - -;
#X obj 235 8 inlet;
#X obj 251 279 outlet;
#X obj 426 283 outlet;
#X obj 612 287 outlet;
#X obj 432 5 cyclone/loadmess 50;
#X obj 118 102 inlet;
#X obj 146 116 unpack f f f;
#X connect 0 0 5 0;
#X connect 0 0 11 0;
#X connect 0 0 17 0;
#X connect 2 0 6 0;
#X connect 3 0 2 0;
#X connect 4 0 3 0;
#X connect 5 0 4 1;
#X connect 6 0 22 0;
#X connect 6 1 7 0;
#X connect 7 0 4 1;
#X connect 8 0 12 0;
#X connect 9 0 8 0;
#X connect 10 0 9 0;
#X connect 11 0 10 1;
#X connect 12 0 23 0;
#X connect 12 1 13 0;
#X connect 13 0 10 1;
#X connect 14 0 18 0;
#X connect 15 0 14 0;
#X connect 16 0 15 0;
#X connect 17 0 16 1;
#X connect 18 0 24 0;
#X connect 18 1 19 0;
#X connect 19 0 16 1;
#X connect 20 0 3 1;
#X connect 20 0 9 1;
#X connect 20 0 15 1;
#X connect 21 0 0 0;
#X connect 25 0 20 0;
#X connect 26 0 27 0;
#X connect 27 0 4 0;
#X connect 27 1 10 0;
#X connect 27 2 16 0;
#X restore 48 180 pd calibrate;
#X obj 71 147 bng 15 250 50 0 empty empty empty 17 7 0 10 -262144 -1
-1;
#X floatatom 51 210 5 0 0 0 - - -;
#X floatatom 90 208 5 0 0 0 - - -;
#X floatatom 132 205 5 0 0 0 - - -;
#X obj 173 244 -;
#X obj 202 246 -;
#X obj 241 247 -;
#X obj 148 392 sig~;
#X text 69 129 calibrate;
#X obj 215 835 dac~;
#X obj 116 49 loadbang;
#X obj 117 71 delay 2500;
#X obj 23 236 vradio 15 1 1 4 sdvs asfgasgf empty 0 -8 0 10 -228856
-1 -1 3;
#X text 41 236 none;
#X text 41 251 x;
#X text 41 266 y;
#X text 41 281 z;
#X obj 143 274 cyclone/switch 3;
#X obj 217 672 *~, f 9;
#X obj 148 369 libs/kalman-pd/kalman;
#X obj 74 308 tgl 15 0 empty empty empty 17 7 0 10 -262144 -1 -1 0
1;
#X msg 60 339 analyze \$1;
#N canvas 1021 664 240 198 graph 1;
#N canvas 0 0 450 300 (subpatch) 0;
#X array filtered 200 float 0;
#X coords 0 1 199 -1 200 140 1 0 0;
#X restore 15 28 graph;
#N canvas 357 307 450 300 graph 0;
#X obj 94 44 inlet;
#X obj 142 44 inlet;
#X obj 143 76 t f f;
#X obj 62 139 tabwrite filtered;
#X connect 0 0 3 0;
#X connect 1 0 2 0;
#X connect 2 1 3 1;
#X restore 52 374 pd graph;
#N canvas 530 236 450 300 counter 0;
#X obj 131 68 int;
#X obj 206 64 + 1;
#X obj 234 65 % 200;
#X obj 124 40 inlet;
#X obj 127 118 outlet;
#X obj 159 68 t f f;
#X connect 0 0 5 0;
#X connect 1 0 2 0;
#X connect 2 0 0 1;
#X connect 3 0 0 0;
#X connect 5 0 4 0;
#X connect 5 1 1 0;
#X restore 118 350 pd counter;
#X obj 58 328 t f f b;
#X obj 57 297 inlet;
#X connect 2 0 1 1;
#X connect 3 1 1 0;
#X connect 3 2 2 0;
#X connect 4 0 3 0;
#X restore 34 394 pd graph;
#X floatatom 172 298 5 0 0 0 - - -;
#X obj 43 14 netreceive -u -b 5005;
#X text 300 807 < with the test there was clip~ 0 1 here. wave folding
might be necessary.;
#X obj 220 807 clip~ -1 1;
#N canvas 1281 651 240 198 freq1 1;
#N canvas 0 0 450 300 (subpatch) 0;
#X array freq1 200 float 0;
#X coords 0 1 199 -1 200 140 1 0 0;
#X restore 15 28 graph;
#N canvas 357 307 450 300 graph 0;
#X obj 94 44 inlet;
#X obj 142 44 inlet;
#X obj 143 76 t f f;
#X obj 62 139 tabwrite freq1;
#X connect 0 0 3 0;
#X connect 1 0 2 0;
#X connect 2 1 3 1;
#X restore 52 374 pd graph;
#N canvas 530 236 450 300 counter 0;
#X obj 131 68 int;
#X obj 206 64 + 1;
#X obj 234 65 % 200;
#X obj 124 40 inlet;
#X obj 127 118 outlet;
#X obj 159 68 t f f;
#X connect 0 0 5 0;
#X connect 1 0 2 0;
#X connect 2 0 0 1;
#X connect 3 0 0 0;
#X connect 5 0 4 0;
#X connect 5 1 1 0;
#X restore 118 350 pd counter;
#X obj 58 328 t f f b;
#X obj 57 297 inlet;
#X connect 2 0 1 1;
#X connect 3 1 1 0;
#X connect 3 2 2 0;
#X connect 4 0 3 0;
#X restore 800 571 pd freq1;
#X obj 836 496 cyclone/snapshot~ 10;
#X msg 787 498 10;
#X text 656 705 freqs: 1.277 1.66 3.353;
#X obj 786 476 loadbang;
#X obj 210 620 osc~ 127.7;
#X obj 213 599 +~ 127.7;
#X obj 354 669 *~, f 9;
#X obj 350 579 +~ 166;
#X obj 347 601 osc~ 166;
#X obj 517 665 *~, f 9;
#X obj 513 575 +~ 335.3;
#X obj 510 597 osc~ 335.3;
#X floatatom 607 397 5 0 0 0 - - -;
#X text 650 397 narrowing bp filters;
#X obj 829 520 * 1;
#X obj 632 554 hip~ 5;
#X obj 418 559 hip~ 5;
#X obj 251 567 hip~ 5;
#X obj 144 310 * 1;
#X obj 475 707 *~ 0.5;
#X obj 133 572 *~ 5;
#X obj 350 542 *~ 5;
#X obj 502 556 *~ 5;
#X floatatom 33 545 5 0 0 0 - - -;
#X text -91 492 how much do we modulate the frew?;
#X obj 337 777 cyclone/tanh~;
#X obj 367 753 *~ 1.5;
#X obj 8 512 cyclone/loadmess 10;
#N canvas 1080 523 450 300 ds 0;
#X obj 38 53 inlet~;
#X obj 44 126 outlet~;
#X obj 169 30 tgl 15 0 empty empty empty 17 7 0 10 -262144 -1 -1 1
1;
#X obj 169 55 switch~ 4096 1 1;
#X obj 97 17 cyclone/loadmess 1;
#X msg 229 20 set 4096 1 1;
#X connect 0 0 1 0;
#X connect 2 0 3 0;
#X connect 4 0 2 0;
#X connect 5 0 3 0;
#X restore 153 427 pd ds;
#X text 224 425 < play with downsampling to see if it makes a difference
;
#X obj 367 732 *~ 3, f 9;
#X obj 191 467 sig~ 1.277;
#X obj 180 492 vcf~ 1;
#X obj 355 486 vcf~ 1;
#X obj 366 461 sig~ 1.66;
#X obj 524 473 sig~ 3.353;
#X obj 601 344 cyclone/loadmess 0.4;
#X text 690 553 do something with envelope;
#X obj 182 522 vcf~ 1;
#X obj 287 615 clip~ 0 1;
#X obj 424 595 clip~ 0 1;
#X obj 612 609 clip~ 0 1;
#X text 686 613 < clip ipv abs?;
#X obj 513 498 vcf~ 1;
#X floatatom 440 764 5 0 0 0 - - -;
#X connect 0 0 1 0;
#X connect 1 0 3 0;
#X connect 2 0 9 0;
#X connect 2 1 10 0;
#X connect 2 2 11 0;
#X connect 3 0 2 0;
#X connect 3 0 4 0;
#X connect 4 0 6 0;
#X connect 4 1 7 0;
#X connect 4 2 8 0;
#X connect 5 0 4 1;
#X connect 6 0 9 1;
#X connect 7 0 10 1;
#X connect 8 0 11 1;
#X connect 9 0 22 1;
#X connect 10 0 22 2;
#X connect 11 0 22 3;
#X connect 12 0 61 0;
#X connect 15 0 16 0;
#X connect 16 0 5 0;
#X connect 17 0 22 0;
#X connect 22 0 51 0;
#X connect 23 0 63 0;
#X connect 24 0 12 0;
#X connect 24 0 27 0;
#X connect 25 0 26 0;
#X connect 26 0 24 0;
#X connect 28 0 51 1;
#X connect 29 0 0 0;
#X connect 31 0 14 0;
#X connect 31 0 14 1;
#X connect 33 0 47 0;
#X connect 34 0 33 1;
#X connect 36 0 34 0;
#X connect 37 0 23 0;
#X connect 38 0 37 0;
#X connect 39 0 63 0;
#X connect 40 0 41 0;
#X connect 41 0 39 0;
#X connect 42 0 52 0;
#X connect 43 0 44 0;
#X connect 44 0 42 0;
#X connect 45 0 66 2;
#X connect 45 0 65 2;
#X connect 45 0 76 2;
#X connect 47 0 32 0;
#X connect 48 0 74 0;
#X connect 49 0 73 0;
#X connect 50 0 72 0;
#X connect 51 0 24 0;
#X connect 52 0 63 0;
#X connect 53 0 38 0;
#X connect 54 0 40 0;
#X connect 55 0 43 0;
#X connect 56 0 53 1;
#X connect 56 0 55 1;
#X connect 56 0 54 1;
#X connect 58 0 31 0;
#X connect 59 0 58 0;
#X connect 60 0 56 0;
#X connect 61 0 65 0;
#X connect 61 0 66 0;
#X connect 61 0 76 0;
#X connect 63 0 59 0;
#X connect 64 0 65 1;
#X connect 64 0 71 1;
#X connect 65 0 71 0;
#X connect 66 0 54 0;
#X connect 66 0 49 0;
#X connect 67 0 66 1;
#X connect 68 0 76 1;
#X connect 69 0 45 0;
#X connect 71 0 50 0;
#X connect 71 0 53 0;
#X connect 72 0 23 1;
#X connect 73 0 39 1;
#X connect 74 0 42 1;
#X connect 76 0 55 0;
#X connect 76 0 48 0;
#X connect 77 0 59 1;
