#N canvas 252 134 982 756 10;
#X obj 147 221 sig~;
#X obj 353 678 dac~;
#X obj 221 497 *~, f 9;
#X obj 146 117 libs/kalman-pd/kalman;
#X obj 49 63 tgl 15 0 empty empty empty 17 7 0 10 -262144 -1 -1 0 1
;
#X msg 35 94 analyze \$1;
#N canvas 5 128 240 198 graph 1;
#N canvas 0 0 450 300 (subpatch) 0;
#X array filtered 200 float 0;
#X coords 0 1 199 -1 200 140 1 0 0;
#X restore 15 28 graph;
#N canvas 357 307 450 300 graph 0;
#X obj 94 44 inlet;
#X obj 142 44 inlet;
#X obj 143 76 t f f;
#X obj 62 139 tabwrite filtered;
#X connect 0 0 3 0;
#X connect 1 0 2 0;
#X connect 2 1 3 1;
#X restore 52 374 pd graph;
#N canvas 530 236 450 300 counter 0;
#X obj 131 68 int;
#X obj 206 64 + 1;
#X obj 234 65 % 200;
#X obj 124 40 inlet;
#X obj 127 118 outlet;
#X obj 159 68 t f f;
#X connect 0 0 5 0;
#X connect 1 0 2 0;
#X connect 2 0 0 1;
#X connect 3 0 0 0;
#X connect 5 0 4 0;
#X connect 5 1 1 0;
#X restore 118 350 pd counter;
#X obj 58 328 t f f b;
#X obj 72 289 snapshot~;
#X obj 102 258 metro 5;
#X obj 106 206 loadbang;
#X msg 104 234 1;
#X obj 50 250 inlet~;
#X connect 2 0 1 1;
#X connect 3 1 1 0;
#X connect 3 2 2 0;
#X connect 4 0 3 0;
#X connect 5 0 4 0;
#X connect 6 0 7 0;
#X connect 7 0 5 0;
#X connect 8 0 4 0;
#X restore 155 562 pd graph;
#X floatatom 167 83 5 0 0 0 - - -;
#X text 438 650 < with the test there was clip~ 0 1 here. wave folding
might be necessary.;
#X obj 358 650 clip~ -1 1;
#X text 563 265 freqs: 1.277 1.66 3.353;
#X obj 214 445 osc~ 127.7;
#X obj 217 424 +~ 127.7;
#X obj 358 494 *~, f 9;
#X obj 354 404 +~ 166;
#X obj 351 426 osc~ 166;
#X obj 521 490 *~, f 9;
#X obj 517 400 +~ 335.3;
#X obj 514 422 osc~ 335.3;
#X floatatom 611 222 5 0 0 0 - - -;
#X text 654 222 narrowing bp filters;
#X obj 142 93 * 1;
#X floatatom 37 370 5 0 0 0 - - -;
#X obj 361 632 cyclone/tanh~;
#X obj 12 337 cyclone/loadmess 10;
#X obj 195 292 sig~ 1.277;
#X obj 184 317 vcf~ 1;
#X obj 359 311 vcf~ 1;
#X obj 370 286 sig~ 1.66;
#X obj 528 298 sig~ 3.353;
#X obj 605 169 cyclone/loadmess 0.4;
#X obj 186 347 vcf~ 1;
#X obj 291 440 clip~ 0 1;
#X obj 422 457 clip~ 0 1;
#X obj 604 464 clip~ 0 1;
#X obj 517 323 vcf~ 1;
#X floatatom 460 562 5 0 0 0 - - -;
#X obj 148 63 inputAccel;
#N canvas 435 272 450 300 calibration 0;
#N canvas 244 284 450 307 calibrate 0;
#X obj 238 28 bng 15 250 50 0 empty empty empty 17 7 0 10 -262144 -1
-1;
#X text 258 24 calibrate;
#X obj 226 196 cyclone/mean;
#X obj 226 171 cyclone/zl group 50;
#X obj 224 143 spigot;
#X msg 238 95 1;
#X obj 234 236 t f b;
#X msg 357 197 0;
#X obj 413 218 cyclone/mean;
#X obj 413 193 cyclone/zl group 50;
#X obj 411 165 spigot;
#X msg 425 117 1;
#X obj 421 258 t f b;
#X msg 544 219 0;
#X obj 599 217 cyclone/mean;
#X obj 599 192 cyclone/zl group 50;
#X obj 597 164 spigot;
#X msg 611 116 1;
#X obj 607 257 t f b;
#X msg 730 218 0;
#X floatatom 434 44 5 0 0 0 - - -;
#X obj 235 8 inlet;
#X obj 251 279 outlet;
#X obj 426 283 outlet;
#X obj 612 287 outlet;
#X obj 432 5 cyclone/loadmess 50;
#X obj 118 102 inlet;
#X obj 146 116 unpack f f f;
#X connect 0 0 5 0;
#X connect 0 0 11 0;
#X connect 0 0 17 0;
#X connect 2 0 6 0;
#X connect 3 0 2 0;
#X connect 4 0 3 0;
#X connect 5 0 4 1;
#X connect 6 0 22 0;
#X connect 6 1 7 0;
#X connect 7 0 4 1;
#X connect 8 0 12 0;
#X connect 9 0 8 0;
#X connect 10 0 9 0;
#X connect 11 0 10 1;
#X connect 12 0 23 0;
#X connect 12 1 13 0;
#X connect 13 0 10 1;
#X connect 14 0 18 0;
#X connect 15 0 14 0;
#X connect 16 0 15 0;
#X connect 17 0 16 1;
#X connect 18 0 24 0;
#X connect 18 1 19 0;
#X connect 19 0 16 1;
#X connect 20 0 3 1;
#X connect 20 0 9 1;
#X connect 20 0 15 1;
#X connect 21 0 0 0;
#X connect 25 0 20 0;
#X connect 26 0 27 0;
#X connect 27 0 4 0;
#X connect 27 1 10 0;
#X connect 27 2 16 0;
#X restore 18 177 pd calibrate;
#X obj 86 156 bng 15 250 50 0 empty empty empty 17 7 0 10 -262144 -1
-1;
#X text 42 72 calibrate;
#X obj 46 95 t b;
#X obj 67 119 delay 500;
#X obj 33 4 loadbang;
#X obj 5 140 inlet;
#X obj 23 221 outlet;
#X obj 174 105 inlet;
#X connect 0 0 7 0;
#X connect 1 0 0 1;
#X connect 3 0 4 0;
#X connect 4 0 1 0;
#X connect 5 0 3 0;
#X connect 6 0 0 0;
#X connect 8 0 1 0;
#X restore 274 138 pd calibration;
#X floatatom 274 164 5 0 0 0 - - -;
#X obj 355 119 bng 15 250 50 0 empty empty empty 17 7 0 10 -262144
-1 -1;
#X obj 142 169 -;
#X obj 273 186 abs;
#X obj 145 248 lop~ 5;
#X obj 260 80 cyclone/loadmess 1.3;
#X obj 143 141 * 10;
#X text 530 84 DO NOT FORGET TO TURN SOUND ON and CALIBRATE;
#X text 7 6 ._.;
#X text 866 651 ._.;
#X text -87 317 how much do we modulate the freq?;
#X obj 147 535 *~ 10;
#X obj 137 397 *~ 2;
#X obj 354 367 *~ 2;
#X obj 506 381 *~ 2;
#N canvas 2 385 240 198 graph 1;
#N canvas 0 0 450 300 (subpatch) 0;
#X array filtered2 200 float 0;
#X coords 0 1 199 -1 200 140 1 0 0;
#X restore 15 28 graph;
#N canvas 357 307 450 300 graph 0;
#X obj 94 44 inlet;
#X obj 142 44 inlet;
#X obj 143 76 t f f;
#X obj 62 137 tabwrite filtered2;
#X connect 0 0 3 0;
#X connect 1 0 2 0;
#X connect 2 1 3 1;
#X restore 52 374 pd graph;
#N canvas 530 236 450 300 counter 0;
#X obj 131 68 int;
#X obj 206 64 + 1;
#X obj 234 65 % 200;
#X obj 124 40 inlet;
#X obj 127 118 outlet;
#X obj 159 68 t f f;
#X connect 0 0 5 0;
#X connect 1 0 2 0;
#X connect 2 0 0 1;
#X connect 3 0 0 0;
#X connect 5 0 4 0;
#X connect 5 1 1 0;
#X restore 118 350 pd counter;
#X obj 58 328 t f f b;
#X obj 72 289 snapshot~;
#X obj 102 258 metro 5;
#X obj 106 206 loadbang;
#X msg 104 234 1;
#X obj 50 250 inlet~;
#X connect 2 0 1 1;
#X connect 3 1 1 0;
#X connect 3 2 2 0;
#X connect 4 0 3 0;
#X connect 5 0 4 0;
#X connect 6 0 7 0;
#X connect 7 0 5 0;
#X connect 8 0 4 0;
#X restore 238 571 pd graph;
#X obj 230 544 *~ 10;
#X obj 371 578 *~ 1;
#X obj 371 557 *~ 1, f 9;
#N canvas 2 626 240 198 graph 1;
#N canvas 0 0 450 300 (subpatch) 0;
#X array filtered3 200 float 0;
#X coords 0 1 199 -1 200 140 1 0 0;
#X restore 15 28 graph;
#N canvas 357 307 450 300 graph 0;
#X obj 94 44 inlet;
#X obj 142 44 inlet;
#X obj 143 76 t f f;
#X obj 62 137 tabwrite filtered3;
#X connect 0 0 3 0;
#X connect 1 0 2 0;
#X connect 2 1 3 1;
#X restore 52 374 pd graph;
#N canvas 530 236 450 300 counter 0;
#X obj 131 68 int;
#X obj 206 64 + 1;
#X obj 234 65 % 200;
#X obj 124 40 inlet;
#X obj 127 118 outlet;
#X obj 159 68 t f f;
#X connect 0 0 5 0;
#X connect 1 0 2 0;
#X connect 2 0 0 1;
#X connect 3 0 0 0;
#X connect 5 0 4 0;
#X connect 5 1 1 0;
#X restore 118 350 pd counter;
#X obj 58 328 t f f b;
#X obj 72 289 snapshot~;
#X obj 102 258 metro 5;
#X obj 106 206 loadbang;
#X msg 104 234 1;
#X obj 50 250 inlet~;
#X connect 2 0 1 1;
#X connect 3 1 1 0;
#X connect 3 2 2 0;
#X connect 4 0 3 0;
#X connect 5 0 4 0;
#X connect 6 0 7 0;
#X connect 7 0 5 0;
#X connect 8 0 4 0;
#X restore 307 578 pd graph;
#X obj 299 551 *~ 10;
#X obj 479 532 *~ 1;
#X obj 300 408 abs~;
#X obj 425 432 abs~;
#X obj 603 439 abs~;
#X floatatom 78 210 5 0 0 0 - - -;
#X connect 0 0 43 0;
#X connect 2 0 50 0;
#X connect 2 0 57 0;
#X connect 3 0 45 0;
#X connect 4 0 5 0;
#X connect 5 0 3 0;
#X connect 7 0 21 1;
#X connect 9 0 1 0;
#X connect 9 0 1 1;
#X connect 11 0 2 0;
#X connect 12 0 11 0;
#X connect 13 0 55 0;
#X connect 13 0 57 0;
#X connect 14 0 15 0;
#X connect 15 0 13 0;
#X connect 16 0 59 0;
#X connect 16 0 60 0;
#X connect 17 0 18 0;
#X connect 18 0 16 0;
#X connect 19 0 27 2;
#X connect 19 0 26 2;
#X connect 19 0 35 2;
#X connect 21 0 3 0;
#X connect 22 0 51 1;
#X connect 22 0 52 1;
#X connect 22 0 53 1;
#X connect 23 0 9 0;
#X connect 24 0 22 0;
#X connect 25 0 26 1;
#X connect 25 0 31 1;
#X connect 26 0 31 0;
#X connect 27 0 52 0;
#X connect 27 0 62 0;
#X connect 28 0 27 1;
#X connect 29 0 35 1;
#X connect 30 0 19 0;
#X connect 31 0 51 0;
#X connect 31 0 61 0;
#X connect 32 0 2 1;
#X connect 33 0 13 1;
#X connect 34 0 16 1;
#X connect 35 0 53 0;
#X connect 35 0 63 0;
#X connect 36 0 56 1;
#X connect 37 0 21 0;
#X connect 38 0 39 0;
#X connect 39 0 42 0;
#X connect 40 0 38 1;
#X connect 41 0 0 0;
#X connect 42 0 41 1;
#X connect 43 0 26 0;
#X connect 43 0 27 0;
#X connect 43 0 35 0;
#X connect 44 0 7 0;
#X connect 45 0 38 0;
#X connect 45 0 41 0;
#X connect 50 0 6 0;
#X connect 51 0 12 0;
#X connect 52 0 14 0;
#X connect 53 0 17 0;
#X connect 55 0 54 0;
#X connect 56 0 23 0;
#X connect 57 0 56 0;
#X connect 59 0 58 0;
#X connect 60 0 57 0;
#X connect 61 0 32 0;
#X connect 62 0 33 0;
#X connect 63 0 34 0;
