#N canvas 38 153 808 547 10;
#X obj 120 311 sig~;
#X obj 124 441 lop~ 5;
#X floatatom 186 469 5 0 0 0 - - -;
#X text 227 467 filter freq;
#X obj 218 653 dac~;
#X floatatom 352 320 5 0 0 0 - - -;
#X obj 219 578 *~, f 9;
#X obj 120 287 libs/kalman-pd/kalman;
#X obj 356 351 sig~;
#X obj 356 398 abs~;
#X obj 341 582 clip~ 0 1;
#X text 393 321 pass this val to subtr;
#X obj 356 376 lop~ 5;
#X obj 46 226 tgl 15 0 empty empty empty 17 7 0 10 -262144 -1 -1 0
1;
#X msg 32 257 analyze \$1;
#N canvas 244 284 450 307 calibrate 0;
#X obj 238 28 bng 15 250 50 0 empty empty empty 17 7 0 10 -262144 -1
-1;
#X text 258 24 calibrate;
#X obj 226 196 cyclone/mean;
#X obj 226 171 cyclone/zl group 50;
#X obj 224 143 spigot;
#X msg 238 95 1;
#X obj 234 236 t f b;
#X msg 357 197 0;
#X obj 413 218 cyclone/mean;
#X obj 413 193 cyclone/zl group 50;
#X obj 411 165 spigot;
#X msg 425 117 1;
#X obj 421 258 t f b;
#X msg 544 219 0;
#X obj 599 217 cyclone/mean;
#X obj 599 192 cyclone/zl group 50;
#X obj 597 164 spigot;
#X msg 611 116 1;
#X obj 607 257 t f b;
#X msg 730 218 0;
#X floatatom 434 44 5 0 0 0 - - -;
#X obj 235 8 inlet;
#X obj 251 279 outlet;
#X obj 426 283 outlet;
#X obj 612 287 outlet;
#X obj 432 5 cyclone/loadmess 50;
#X obj 118 102 inlet;
#X obj 146 116 unpack f f f;
#X connect 0 0 5 0;
#X connect 0 0 11 0;
#X connect 0 0 17 0;
#X connect 2 0 6 0;
#X connect 3 0 2 0;
#X connect 4 0 3 0;
#X connect 5 0 4 1;
#X connect 6 0 22 0;
#X connect 6 1 7 0;
#X connect 7 0 4 1;
#X connect 8 0 12 0;
#X connect 9 0 8 0;
#X connect 10 0 9 0;
#X connect 11 0 10 1;
#X connect 12 0 23 0;
#X connect 12 1 13 0;
#X connect 13 0 10 1;
#X connect 14 0 18 0;
#X connect 15 0 14 0;
#X connect 16 0 15 0;
#X connect 17 0 16 1;
#X connect 18 0 24 0;
#X connect 18 1 19 0;
#X connect 19 0 16 1;
#X connect 20 0 3 1;
#X connect 20 0 9 1;
#X connect 20 0 15 1;
#X connect 21 0 0 0;
#X connect 25 0 20 0;
#X connect 26 0 27 0;
#X connect 27 0 4 0;
#X connect 27 1 10 0;
#X connect 27 2 16 0;
#X restore 534 440 pd calibrate;
#X obj 602 419 bng 15 250 50 0 empty empty empty 17 7 0 10 -262144
-1 -1;
#X text 558 335 calibrate;
#X floatatom 533 473 5 0 0 0 - - -;
#X obj 518 396 abs 0;
#X obj 133 506 cyclone/scale~ 0 1 0 200;
#X obj 636 240 t f f;
#X obj 643 274 -;
#X obj 609 203 cyclone/snapshot~;
#X obj 562 358 t b;
#X obj 583 382 delay 500;
#X floatatom 653 308 5 0 0 0 - - -;
#X obj 533 137 cyclone/loadmess 1;
#X obj 668 139 loadbang;
#X msg 698 171 100;
#X obj 659 385 tgl 15 0 empty empty empty 17 7 0 10 -262144 -1 -1 0
1;
#X obj 514 175 *~ 1000, f 9;
#X obj 657 357 > 3;
#X obj 656 410 change;
#X obj 654 436 sel 0;
#X obj 608 178 lop~ 0.1;
#X obj 530 503 sig~;
#X obj 356 421 -~;
#X floatatom 178 532 5 0 0 0 - - -;
#X obj 516 541 -~ 0.01;
#X obj 511 568 lop~ 2;
#X obj 221 601 *~ 3, f 9;
#X obj 116 228 * 1;
#N canvas 152 157 732 454 graph 0;
#N canvas 0 0 450 300 (subpatch) 0;
#X array filtered 200 float 0;
#X coords 0 1 199 -1 200 140 1 0 0;
#X restore 74 40 graph;
#N canvas 357 307 450 300 graph 0;
#X obj 94 44 inlet;
#X obj 142 44 inlet;
#X obj 143 76 t f f;
#X obj 62 139 tabwrite filtered;
#X connect 0 0 3 0;
#X connect 1 0 2 0;
#X connect 2 1 3 1;
#X restore 52 374 pd graph;
#N canvas 530 236 450 300 counter 0;
#X obj 131 68 int;
#X obj 206 64 + 1;
#X obj 234 65 % 200;
#X obj 124 40 inlet;
#X obj 127 118 outlet;
#X obj 159 68 t f f;
#X connect 0 0 5 0;
#X connect 1 0 2 0;
#X connect 2 0 0 1;
#X connect 3 0 0 0;
#X connect 5 0 4 0;
#X connect 5 1 1 0;
#X restore 118 350 pd counter;
#X obj 58 328 t f f b;
#X obj 50 219 inlet~;
#X floatatom 137 325 5 0 0 0 - - -;
#X obj 158 268 metro 5;
#X obj 161 248 tgl 15 0 empty empty empty 17 7 0 10 -262144 -1 -1 1
1;
#X obj 53 300 snapshot~;
#X connect 2 0 1 1;
#X connect 3 1 1 0;
#X connect 3 2 2 0;
#X connect 4 0 8 0;
#X connect 6 0 8 0;
#X connect 7 0 6 0;
#X connect 8 0 3 0;
#X connect 8 0 5 0;
#X restore 44 483 pd graph;
#X floatatom 196 183 5 0 0 0 - - -;
#X text 303 625 < with the test there was clip~ 0 1 here. wave folding
might be necessary.;
#X obj 118 182 inputAccel;
#X obj 555 293 bng 15 250 50 0 empty empty empty 17 7 0 10 -262144
-1 -1;
#X obj 185 448 cyclone/loadmess 5;
#X obj 549 267 loadbang;
#X obj 121 342 -~;
#X text 217 530 basisfrequentie;
#X obj 133 552 osc~;
#X obj 134 530 +~ 200;
#X obj 196 143 cyclone/loadmess 10;
#X obj 223 625 clip~ -1 1;
#X connect 0 0 50 0;
#X connect 1 0 20 0;
#X connect 1 0 31 0;
#X connect 1 0 43 0;
#X connect 2 0 1 1;
#X connect 5 0 8 0;
#X connect 5 0 19 0;
#X connect 6 0 41 0;
#X connect 7 0 0 0;
#X connect 7 0 5 0;
#X connect 8 0 12 0;
#X connect 9 0 37 0;
#X connect 9 0 50 1;
#X connect 10 0 6 1;
#X connect 12 0 9 0;
#X connect 13 0 14 0;
#X connect 14 0 7 0;
#X connect 15 0 18 0;
#X connect 16 0 15 1;
#X connect 18 0 36 0;
#X connect 19 0 15 0;
#X connect 20 0 53 0;
#X connect 21 0 22 1;
#X connect 21 1 22 0;
#X connect 22 0 26 0;
#X connect 23 0 21 0;
#X connect 24 0 25 0;
#X connect 25 0 16 0;
#X connect 26 0 32 0;
#X connect 27 0 23 0;
#X connect 28 0 29 0;
#X connect 29 0 23 1;
#X connect 30 0 33 0;
#X connect 31 0 35 0;
#X connect 32 0 30 0;
#X connect 33 0 34 0;
#X connect 34 0 16 0;
#X connect 35 0 23 0;
#X connect 36 0 39 0;
#X connect 37 0 10 0;
#X connect 38 0 53 1;
#X connect 39 0 40 0;
#X connect 40 0 37 1;
#X connect 41 0 55 0;
#X connect 42 0 7 0;
#X connect 44 0 42 1;
#X connect 46 0 42 0;
#X connect 47 0 24 0;
#X connect 48 0 2 0;
#X connect 49 0 47 0;
#X connect 50 0 1 0;
#X connect 52 0 6 0;
#X connect 53 0 52 0;
#X connect 54 0 44 0;
#X connect 55 0 4 0;
#X connect 55 0 4 1;
